<svg width="27" height="26" viewBox="0 0 27 26" fill="none" xmlns="http://www.w3.org/2000/svg">
<path d="M6.86727 13C5.33806 13 4.03454 13.585 2.95672 14.755C1.87891 15.925 1.34 17.34 1.34 19C1.34 20.66 1.87891 22.075 2.95672 23.245C4.03454 24.415 5.33806 25 6.86727 25H11.8418C12.892 25 13.7902 24.615 14.5364 23.845C15.2825 23.075 15.6741 22.12 15.7109 20.98M6.86727 13C7.97272 13 8.98145 13.325 9.89345 13.975C10.8055 14.625 11.4825 15.5 11.9247 16.6C12.9933 16.6 13.8915 17.03 14.6193 17.89C15.347 18.75 15.7109 19.78 15.7109 20.98M6.86727 13C7.23575 13.1 7.61345 13.19 8.00036 13.27C8.38727 13.35 8.76497 13.44 9.13345 13.54C9.28084 12.34 9.76909 11.35 10.5982 10.57C11.4273 9.79 12.3945 9.4 13.5 9.4C14.716 9.4 15.757 9.87 16.6229 10.81C17.4888 11.75 17.9218 12.88 17.9218 14.2C17.9218 15.18 17.6685 16.07 17.1618 16.87C16.6551 17.67 15.9873 18.26 15.1582 18.64C15.2503 19.04 15.3424 19.43 15.4345 19.81C15.5267 20.19 15.6188 20.58 15.7109 20.98M6.86727 13C7.12521 11.24 7.88521 9.8 9.14727 8.68C10.4093 7.56 11.8602 7 13.5 7C15.3424 7 16.9085 7.7 18.1982 9.1C19.4879 10.5 20.1327 12.2 20.1327 14.2C20.1327 15.74 19.7274 17.125 18.9167 18.355C18.1061 19.585 17.0375 20.46 15.7109 20.98M12.3945 5.8V1H14.6055V5.8H12.3945ZM19.7458 9.1L18.1982 7.42L21.3211 4L22.8687 5.71L19.7458 9.1ZM21.2382 15.4V13H25.66V15.4H21.2382ZM21.3211 24.37L18.1982 20.98L19.7458 19.3L22.8964 22.66L21.3211 24.37ZM7.25418 9.1L4.13127 5.71L5.70654 4L8.80181 7.42L7.25418 9.1ZM6.86727 22.6H11.8418C12.3024 22.6 12.6939 22.425 13.0164 22.075C13.3388 21.725 13.5 21.3 13.5 20.8C13.5 20.3 13.3434 19.875 13.0302 19.525C12.717 19.175 12.3301 19 11.8695 19H10.46L9.90727 17.56C9.64933 16.9 9.244 16.375 8.69127 15.985C8.13854 15.595 7.53054 15.4 6.86727 15.4C5.94606 15.4 5.16303 15.75 4.51818 16.45C3.87333 17.15 3.55091 18 3.55091 19C3.55091 20 3.87333 20.85 4.51818 21.55C5.16303 22.25 5.94606 22.6 6.86727 22.6Z" stroke="white" stroke-linejoin="round"/>
</svg>
