<svg width="123" height="116" viewBox="0 0 123 116" fill="none" xmlns="http://www.w3.org/2000/svg">
<rect width="123" height="116" fill="white"/>
<path d="M41 43.4997C43.8305 43.4997 46.125 41.3357 46.125 38.6663C46.125 35.997 43.8305 33.833 41 33.833C38.1695 33.833 35.875 35.997 35.875 38.6663C35.875 41.3357 38.1695 43.4997 41 43.4997Z" fill="#DDDDDD" fill-opacity="0.5"/>
<path d="M82 82.1667C84.8305 82.1667 87.125 80.0027 87.125 77.3333C87.125 74.664 84.8305 72.5 82 72.5C79.1695 72.5 76.875 74.664 76.875 77.3333C76.875 80.0027 79.1695 82.1667 82 82.1667Z" fill="#DDDDDD" fill-opacity="0.5"/>
<path d="M61.5 9.66699C33.3125 9.66699 10.25 31.417 10.25 58.0003C10.25 84.5837 33.3125 106.334 61.5 106.334C89.6875 106.334 112.75 84.5837 112.75 58.0003C112.75 31.417 89.6875 9.66699 61.5 9.66699ZM61.5 96.667C38.95 96.667 20.5 79.267 20.5 58.0003C20.5 36.7337 38.95 19.3337 61.5 19.3337C84.05 19.3337 102.5 36.7337 102.5 58.0003C102.5 79.267 84.05 96.667 61.5 96.667Z" fill="#DDDDDD" fill-opacity="0.5"/>
<path d="M85.5875 35.2831C84.05 33.8331 81.4875 33.3497 79.4375 34.3164L53.8125 48.8164C53.3 49.2997 52.275 49.7831 52.275 50.2664L36.9 74.4331C35.875 76.3664 35.875 78.7831 37.925 80.2331C38.4375 81.6831 39.4625 82.1664 41 82.1664C42.025 82.1664 43.05 82.1664 43.5625 81.6831L69.1875 67.1831C69.7 66.6997 70.725 66.2164 70.725 65.7331L86.1 41.5664C87.6375 39.1497 87.125 36.7331 85.5875 35.2831ZM63.0375 59.4497L55.8625 63.3164L59.9625 56.5497L67.1375 52.6831L63.0375 59.4497Z" fill="#DDDDDD" fill-opacity="0.5"/>
</svg>
