<svg width="92" height="113" viewBox="0 0 92 113" fill="none" xmlns="http://www.w3.org/2000/svg">
<path fill-rule="evenodd" clip-rule="evenodd" d="M87 47.1364C87 79.9091 46 108 46 108C46 108 5 79.9091 5 47.1364C5 35.9611 9.31963 25.2436 17.0086 17.3415C24.6976 9.43935 35.1261 5 46 5C56.8739 5 67.3024 9.43935 74.9914 17.3415C82.6804 25.2436 87 35.9611 87 47.1364Z" stroke="#DDDDDD" stroke-opacity="0.5" stroke-width="10" stroke-linecap="round" stroke-linejoin="round"/>
<path d="M46.0002 61.1817C53.5481 61.1817 59.6668 54.8934 59.6668 47.1363C59.6668 39.3792 53.5481 33.0908 46.0002 33.0908C38.4523 33.0908 32.3335 39.3792 32.3335 47.1363C32.3335 54.8934 38.4523 61.1817 46.0002 61.1817Z" stroke="#DDDDDD" stroke-opacity="0.5" stroke-width="10" stroke-linecap="round" stroke-linejoin="round"/>
</svg>
