<svg width="83" height="108" viewBox="0 0 83 108" fill="none" xmlns="http://www.w3.org/2000/svg">
<rect width="83" height="108" fill="white"/>
<path fill-rule="evenodd" clip-rule="evenodd" d="M75.6432 0H7.82461C6.74921 0.00284965 5.71978 0.208427 4.96075 0.571912C4.20173 0.935397 3.77468 1.42731 3.77271 1.9404V105.692C3.77271 106.762 5.5987 107.626 7.82461 107.626H75.6432C77.8842 107.626 79.7102 106.762 79.7102 105.692V1.9404C79.7082 1.42607 79.279 0.933071 78.5168 0.569381C77.7545 0.205692 76.7212 0.000951591 75.6432 0ZM11.8916 103.752V3.8736H71.5913V19.0836H62.0991C61.0237 19.0845 59.9926 19.2883 59.2308 19.6504C58.4689 20.0126 58.038 20.5037 58.0321 21.0168C58.0341 21.5311 58.4632 22.0241 59.2255 22.3878C59.9878 22.7515 61.021 22.9563 62.0991 22.9572H71.5913V32.4432H48.555C47.477 32.4442 46.4437 32.6489 45.6814 33.0126C44.9191 33.3763 44.49 33.8693 44.488 34.3836C44.494 34.8967 44.9248 35.3878 45.6867 35.75C46.4485 36.1121 47.4796 36.3159 48.555 36.3168H71.5913V45.4212H62.1896C61.113 45.4212 60.0804 45.6253 59.3191 45.9885C58.5579 46.3517 58.1302 46.8443 58.1302 47.358C58.1302 47.8717 58.5579 48.3643 59.3191 48.7275C60.0804 49.0907 61.113 49.2948 62.1896 49.2948H71.5913V58.3776H48.555C48.0021 58.3615 47.4481 58.3995 46.9272 58.4894C46.4063 58.5793 45.9294 58.7191 45.526 58.9002C45.1225 59.0813 44.801 59.2998 44.5813 59.5424C44.3615 59.785 44.2481 60.0465 44.2481 60.3108C44.2481 60.5751 44.3615 60.8366 44.5813 61.0792C44.801 61.3218 45.1225 61.5404 45.526 61.7214C45.9294 61.9025 46.4063 62.0423 46.9272 62.1322C47.4481 62.2221 48.0021 62.2601 48.555 62.244H71.5913V71.3268H62.1896C61.113 71.3268 60.0804 71.5309 59.3191 71.8941C58.5579 72.2573 58.1302 72.7499 58.1302 73.2636C58.1302 73.7773 58.5579 74.2699 59.3191 74.6331C60.0804 74.9964 61.113 75.2004 62.1896 75.2004H71.5913V84.2904H48.555C47.4796 84.2913 46.4485 84.4951 45.6867 84.8572C44.9248 85.2194 44.494 85.7105 44.488 86.2236C44.49 86.7379 44.9191 87.2309 45.6814 87.5946C46.4437 87.9583 47.477 88.1631 48.555 88.164H71.5913V103.745H11.8916V103.752Z" fill="#DDDDDD" fill-opacity="0.5"/>
</svg>
