<svg width="124" height="100" viewBox="0 0 124 100" fill="none" xmlns="http://www.w3.org/2000/svg">
<path d="M83.875 17.4602C82.7225 17.4598 81.617 17.0265 80.7994 16.2549C70.4306 6.50845 53.565 6.50845 43.2006 16.2549C42.7924 16.6386 42.3087 16.9421 41.777 17.1482C41.2453 17.3543 40.676 17.4589 40.1018 17.456C39.5276 17.4531 38.9595 17.3428 38.4302 17.1313C37.9008 16.9199 37.4205 16.6115 37.0166 16.2237C36.6127 15.8359 36.2931 15.3763 36.0762 14.8712C35.8592 14.3661 35.7492 13.8253 35.7522 13.2798C35.7553 12.7343 35.8714 12.1946 36.0939 11.6917C36.3165 11.1889 36.6412 10.7325 37.0494 10.3488C50.8044 -2.58958 73.1912 -2.58958 86.9506 10.3488C87.5657 10.9284 87.9859 11.6685 88.1578 12.4752C88.3297 13.2819 88.2456 14.1189 87.9161 14.8801C87.5867 15.6413 87.0268 16.2925 86.3074 16.7511C85.5879 17.2097 84.7414 17.4592 83.875 17.4602ZM70.75 29.9289C70.153 29.9298 69.5622 29.8141 69.0142 29.5889C68.4663 29.3636 67.973 29.0337 67.565 28.6197C66.8477 27.9029 65.9846 27.3321 65.0279 26.9421C64.0712 26.5521 63.041 26.351 62 26.351C60.959 26.351 59.9288 26.5521 58.9721 26.9421C58.0154 27.3321 57.1522 27.9029 56.435 28.6197C56.0412 29.0168 55.5688 29.3363 55.045 29.5599C54.5212 29.7836 53.9562 29.9071 53.3821 29.9233C52.8081 29.9395 52.2363 29.8481 51.6994 29.6544C51.1626 29.4607 50.6711 29.1684 50.2531 28.7943C49.8352 28.4201 49.4988 27.9714 49.2634 27.4738C49.028 26.9762 48.898 26.4394 48.8809 25.894C48.8639 25.3487 48.96 24.8055 49.164 24.2955C49.3679 23.7854 49.6755 23.3186 50.0694 22.9215C53.2369 19.7212 57.4762 17.9631 62 17.9631C66.5238 17.9631 70.7631 19.7253 73.935 22.9215C74.5232 23.5114 74.9163 24.2524 75.0655 25.0525C75.2147 25.8526 75.1135 26.6768 74.7745 27.4228C74.4354 28.1688 73.8733 28.8039 73.158 29.2494C72.4426 29.6949 71.6054 29.9311 70.75 29.9289ZM62.0044 99.6833C61.3259 99.6846 60.6563 99.5358 60.0489 99.2486C59.4414 98.9615 58.9126 98.544 58.5044 98.0291L47.2694 83.8396L37.1281 87.04C35.2731 87.6218 33.2081 86.9568 32.1144 85.4024C29.0956 81.1131 19.8994 68.05 10.6769 66.3044L4.27188 65.0908C3.27965 64.9034 2.38645 64.3951 1.74432 63.6525C1.10219 62.9098 0.750813 61.9787 0.75 61.0177C0.75 51.4126 11.1888 44.6545 26.2344 44.4342L34.2975 41.7327C34.9571 41.5121 35.6628 41.445 36.3554 41.5369C37.0479 41.6288 37.7072 41.8771 38.2779 42.261C38.8487 42.6448 39.3142 43.1531 39.6356 43.7431C39.957 44.3331 40.1248 44.9877 40.125 45.652C40.125 50.44 44.4563 56.8573 48.875 56.8573H49.2819C50.5156 50.76 54.5756 45.6395 62 45.6395C69.3938 45.6395 73.4537 50.7268 74.7006 56.7118H75.125C79.6312 56.7118 83.875 50.4816 83.875 45.6562C83.872 44.9961 84.0348 44.3449 84.3499 43.7567C84.665 43.1684 85.1234 42.6601 85.6869 42.274C86.2504 41.8879 86.9027 41.635 87.5897 41.5366C88.2767 41.4381 88.9785 41.4967 89.6369 41.7077L97.7306 44.2846C112.794 44.4924 123.25 51.2588 123.25 60.868C123.249 61.8291 122.898 62.7602 122.256 63.5028C121.614 64.2455 120.72 64.7538 119.728 64.9412L113.319 66.159C104.101 67.9046 94.9044 80.9677 91.8856 85.2569C91.3503 86.0099 90.5716 86.5769 89.6671 86.8724C88.7626 87.1678 87.7814 87.1756 86.8719 86.8945L76.7306 83.6942L65.9681 97.2893C65.6145 98.0044 65.0541 98.6092 64.3522 99.0331C63.6504 99.457 62.8361 99.6825 62.0044 99.6833ZM48.875 74.7956C50.2269 74.7956 51.5262 75.3858 52.3706 76.4498L61.9388 88.5445L71.6294 76.3044C72.7625 74.8788 74.7356 74.3094 76.5031 74.858L86.5 78.0167C92.5856 69.7458 101.279 59.962 111.613 58.0085L113.266 57.6927C110.961 54.8581 105.466 52.593 97 52.593C96.527 52.5928 96.0572 52.5198 95.6087 52.3768L91.7412 51.1424C89.4531 58.3826 82.9913 65.0243 75.125 65.0243H70.75C69.5897 65.0243 68.4769 64.5864 67.6564 63.807C66.8359 63.0275 66.375 61.9703 66.375 60.868C66.375 59.2471 66.06 53.952 62 53.952C57.94 53.952 57.625 59.2429 57.625 60.868C57.625 63.1664 55.6694 65.1698 53.25 65.1698H48.875C41.0175 65.1698 34.5688 58.5031 32.2719 51.2255L28.4525 52.5015C27.9859 52.6577 27.4948 52.7378 27 52.7384C18.5344 52.7384 13.0394 55.0036 10.7338 57.8423L12.3875 58.154C22.7169 60.1074 31.4144 69.8954 37.5 78.1622L47.4925 75.0035C47.9475 74.8621 48.4112 74.7956 48.875 74.7956Z" fill="#DDDDDD" fill-opacity="0.5"/>
</svg>
