<svg width="25" height="24" viewBox="0 0 25 24" fill="none" xmlns="http://www.w3.org/2000/svg">
<path d="M21.5678 17.0884L19.9768 15.6564L24 12.9407V15.6C24 16.6445 23.6673 17.6328 22.9795 18.5752C22.2736 19.5424 21.3688 20.392 20.2586 21.1223C19.1452 21.8545 17.8996 22.4352 16.5189 22.8623C15.1399 23.289 13.8008 23.5 12.5 23.5C11.1992 23.5 9.86014 23.289 8.48111 22.8623C7.1004 22.4352 5.8548 21.8545 4.74142 21.1223C3.63115 20.392 2.72644 19.5424 2.02054 18.5752C1.33272 17.6328 1 16.6445 1 15.6V12.9407L5.02322 15.6564L3.43218 17.0884C3.2511 17.2513 3.21384 17.5211 3.34397 17.7271C4.04743 18.8405 5.14591 19.7736 6.59968 20.542C8.04894 21.3081 9.54969 21.7973 11.1001 22.0055C11.243 22.0247 11.3873 21.9813 11.4958 21.8864C11.6044 21.7914 11.6667 21.6542 11.6667 21.51V10.8C11.6667 10.5239 11.4428 10.3 11.1667 10.3H7.66667V8.9H11.1667C11.4428 8.9 11.6667 8.67614 11.6667 8.4V6.99C11.6667 6.77494 11.5292 6.58398 11.3252 6.51579C10.633 6.28442 10.0745 5.90218 9.6367 5.36804C9.20907 4.84633 9 4.26302 9 3.6C9 2.74903 9.32319 2.03181 10.0011 1.42165C10.6811 0.809694 11.5041 0.5 12.5 0.5C13.4959 0.5 14.3189 0.809694 14.9989 1.42165C15.6768 2.03181 16 2.74903 16 3.6C16 4.26302 15.7909 4.84633 15.3633 5.36804C14.9255 5.90218 14.367 6.28442 13.6748 6.51579C13.4708 6.58398 13.3333 6.77494 13.3333 6.99V8.4C13.3333 8.67614 13.5572 8.9 13.8333 8.9H17.3333V10.3H13.8333C13.5572 10.3 13.3333 10.5239 13.3333 10.8V21.51C13.3333 21.6542 13.3956 21.7914 13.5042 21.8864C13.6127 21.9813 13.757 22.0247 13.8999 22.0055C15.4503 21.7973 16.9511 21.3081 18.4003 20.542C19.8541 19.7736 20.9526 18.8405 21.656 17.7271C21.7862 17.5211 21.7489 17.2513 21.5678 17.0884ZM12.5 5.3C12.9881 5.3 13.4278 5.1477 13.7845 4.82665C14.144 4.50304 14.3333 4.08355 14.3333 3.6C14.3333 3.11645 14.144 2.69696 13.7845 2.37335C13.4278 2.0523 12.9881 1.9 12.5 1.9C12.0119 1.9 11.5722 2.0523 11.2155 2.37335C10.856 2.69696 10.6667 3.11645 10.6667 3.6C10.6667 4.08355 10.856 4.50304 11.2155 4.82665C11.5722 5.1477 12.0119 5.3 12.5 5.3Z" stroke="white" stroke-linejoin="round"/>
</svg>
