<svg width="120" height="87" viewBox="0 0 120 87" fill="none" xmlns="http://www.w3.org/2000/svg">
<path d="M46.7543 7.8393C48.0323 6.71468 49.6081 5.88371 51.3417 5.42025C53.0752 4.95679 54.9128 4.87521 56.6911 5.18275C58.4694 5.49029 60.1332 6.17743 61.5348 7.18309C62.9364 8.18874 64.0322 9.48176 64.7248 10.9472C65.4175 12.4126 65.6855 14.005 65.5051 15.5829C65.3247 17.1608 64.7014 18.6753 63.6907 19.9917C62.68 21.308 61.3132 22.3856 59.7117 23.1285C58.1102 23.8714 56.3238 24.2566 54.5111 24.25H5M63.258 79.1607C64.536 80.2853 66.1118 81.1163 67.8454 81.5798C69.5789 82.0432 71.4165 82.1248 73.1948 81.8173C74.9731 81.5097 76.6369 80.8226 78.0385 79.8169C79.44 78.8113 80.5358 77.5182 81.2285 76.0528C81.9212 74.5874 82.1892 72.995 82.0088 71.4171C81.8284 69.8392 81.2051 68.3247 80.1944 67.0083C79.1837 65.692 77.8169 64.6144 76.2154 63.8715C74.6139 63.1286 72.8274 62.7434 71.0148 62.75H5M91.5343 22.9506C93.1344 21.5544 95.1031 20.5247 97.2663 19.9524C99.4294 19.3802 101.721 19.2832 103.937 19.6698C106.153 20.0565 108.226 20.915 109.973 22.1694C111.72 23.4237 113.086 25.0354 113.952 26.8617C114.817 28.688 115.155 30.6727 114.935 32.6403C114.715 34.6079 113.944 36.4978 112.69 38.1427C111.436 39.7876 109.739 41.137 107.747 42.0714C105.756 43.0058 103.531 43.4965 101.272 43.5H5" stroke="#DDDDDD" stroke-opacity="0.5" stroke-width="10" stroke-linecap="round" stroke-linejoin="round"/>
</svg>
