<svg width="86" height="74" viewBox="0 0 86 74" fill="none" xmlns="http://www.w3.org/2000/svg">
<path d="M43.0036 13.9512C32.6504 13.9512 24.1015 21.4277 23.1205 31.1379C23.7602 30.645 24.4079 30.0941 25.0824 29.5201C25.7659 28.9367 26.4719 28.3353 27.193 27.781C27.9473 27.1933 31.7833 26.9789 32.6916 27.8126C33.8338 28.8555 34.9169 29.8045 35.9095 30.6373C35.9238 30.6459 35.9372 30.6544 35.9507 30.6655C39.6317 33.7533 41.6159 34.8834 42.2233 35.1952C43.6271 34.3991 45.6696 34.3871 46.8377 35.6C47.5911 35.4454 48.375 35.5445 49.0925 35.8605C49.0039 35.3318 49.0406 34.786 49.2162 34.282C49.4482 33.609 50.0314 32.6771 51.4826 32.0535C53.1784 31.3189 55.1206 31.5257 56.6014 32.4396C55.582 30.8654 54.1898 30.165 53.2994 29.8652C51.7962 29.3509 50.4085 29.4731 49.6972 29.8224C49.5853 29.878 49.4885 29.9386 49.4142 30.0027C49.5467 30.153 49.6533 30.358 49.7187 30.6023C49.9113 31.3249 49.6865 32.2355 48.7485 32.6395C48.0552 32.9367 47.3206 32.8453 46.732 32.3875C45.9132 31.7512 45.5674 30.569 45.8487 29.3749C46.2716 27.5692 47.6135 26.6398 48.6643 26.1777C50.3476 25.4397 52.4716 25.3893 53.9094 26.0359C55.9681 25.5192 58.3313 25.8993 60.2699 27.0618C61.1926 27.617 61.9621 28.3174 62.5578 29.1272C60.6864 20.4053 52.6508 13.9512 43.0036 13.9512ZM52.9554 35.0303C52.8434 35.0448 52.7377 35.0747 52.6445 35.1157C52.6965 35.1456 52.7484 35.1781 52.7977 35.2148C53.2806 35.5718 53.5825 36.3021 53.1704 37.1256C52.9151 37.6406 52.3668 37.9985 51.7057 38.0814C51.5749 38.0976 51.4441 38.0976 51.3142 38.0908C51.4629 38.4316 51.5633 38.7869 51.6107 39.1491C52.3686 39.179 53.2044 38.7997 53.8136 38.1224C54.464 37.3963 54.6843 36.537 54.4048 35.8153C54.0671 35.2447 53.526 34.9483 52.9554 35.0303Z" fill="#5CE1E6"/>
<path d="M62.9627 32.4066C62.2174 31.3969 60.6873 31.1791 59.8551 31.3628C59.6177 31.414 59.4143 31.4849 59.2316 31.5789C58.5732 31.9009 58.1853 32.5142 58.2327 33.1446C58.2713 33.6588 58.5812 34.0466 59.082 34.2106C59.3731 34.3045 59.6741 34.1414 59.8121 33.9364C59.9348 33.7579 59.9196 33.5879 59.7673 33.4333C59.6804 33.3444 59.6374 33.2232 59.649 33.1019C59.6598 32.9797 59.7261 32.8695 59.8291 32.7969C60.2932 32.4681 60.9301 32.4971 61.4936 32.8687C62.1009 33.2693 62.5972 34.0321 62.8517 35.1015C62.9314 34.4096 62.9762 33.7109 62.9762 33.0036C62.9762 32.8021 62.9699 32.6064 62.9627 32.4066ZM47.3009 31.7224C47.5266 31.8992 47.8975 32.0666 48.3777 31.8573C48.6661 31.7326 48.8337 31.5182 48.8731 31.2184C48.9143 30.9067 48.8023 30.6478 48.7324 30.5633C48.6222 30.5471 48.521 30.4941 48.4493 30.4095C48.3562 30.3028 48.3248 30.1567 48.3642 30.0217C48.4789 29.6331 48.7978 29.3 49.2852 29.0608C50.327 28.5483 51.9431 28.5304 53.4418 29.0061C54.9253 28.5269 57.9595 28.8891 59.2047 30.6521C59.3472 30.6026 59.4959 30.5607 59.6562 30.5266C60.3774 30.3677 61.5706 30.4138 62.5766 30.9511C62.0463 29.6673 61.0878 28.5671 59.7906 27.7881C58.0106 26.7212 55.8391 26.3898 53.9883 26.9049C53.8754 26.9356 53.7545 26.9245 53.6523 26.8716C52.4636 26.2694 50.525 26.3061 49.0406 26.9578C48.1734 27.3379 47.0689 28.099 46.7275 29.5631C46.4902 30.5633 46.8449 31.3679 47.3009 31.7224ZM51.8535 32.8362C50.9389 33.2283 50.3234 33.8202 50.0699 34.5514C49.8433 35.2057 49.9176 35.9531 50.2688 36.5518C50.3172 36.6253 50.3718 36.715 50.4372 36.7842C50.7391 37.1258 51.1548 37.2873 51.5901 37.2301C51.9404 37.1856 52.2351 37.0054 52.3579 36.7568C52.5684 36.3357 52.4295 36.0291 52.2459 35.8924C52.15 35.8215 52.0649 35.8147 52.0452 35.8292C51.8974 35.9488 51.6878 35.9608 51.522 35.8659C51.3572 35.7711 51.2748 35.5858 51.3169 35.4056C51.4674 34.7683 52.0595 34.2866 52.8264 34.1815C53.5744 34.0782 54.5822 34.3498 55.2003 35.4115C55.203 35.4158 55.2039 35.4201 55.2066 35.4235C55.2066 35.4243 55.2066 35.4243 55.2066 35.4243C55.2514 35.4987 55.2944 35.5721 55.3275 35.6447C55.8471 36.7235 55.8409 38.0535 55.3087 39.2835C54.7023 40.686 53.4803 41.8092 51.8481 42.4755C51.9064 42.9034 51.8893 43.3262 51.8033 43.7345C52.7717 43.3894 53.9372 43.4134 54.9719 43.8396C59.3893 40.6313 58.3214 36.0616 57.5833 34.6932C56.5333 32.7542 53.9632 31.9231 51.8535 32.8362ZM54.8563 44.7313C54.8438 44.7271 54.8304 44.7237 54.8178 44.7168C53.6201 44.13 52.0954 44.2667 51.2712 45.0363L51.1772 45.1319C51.1324 45.2046 51.0732 45.2806 51.0043 45.36C50.843 45.6128 50.7633 45.9135 50.7848 46.1997C50.8117 46.7241 51.1207 47.1119 51.5212 47.1324C51.9485 47.135 52.0846 46.9086 52.133 46.8053C52.1957 46.6703 52.2047 46.4841 52.0873 46.3713C51.9673 46.2569 51.9252 46.0861 51.978 45.9314C52.0327 45.7777 52.1724 45.6667 52.3417 45.6427C52.666 45.5975 52.9769 45.6248 53.2429 45.7171H53.2438C53.2483 45.7188 53.2537 45.7213 53.2591 45.723C53.9659 45.9485 54.4469 46.5977 54.5276 47.4604C54.5607 47.814 54.5213 48.2266 54.3842 48.6468C55.1779 48.1224 55.9322 47.5416 56.6435 46.9052C56.2628 45.6641 55.4763 45.0406 54.8563 44.7313ZM50.903 42.3012C50.8188 41.9502 50.6755 41.6102 50.4793 41.295C50.404 41.1712 50.3969 41.0217 50.4596 40.8919C50.6683 40.4725 50.766 40.0095 50.7409 39.5534C50.7185 38.765 50.3637 37.9732 49.7662 37.3736C48.9465 36.5348 47.8151 36.1982 46.8064 36.4929C46.6263 36.5501 46.4274 36.4852 46.3128 36.34C45.4564 35.2398 43.6172 35.2996 42.5055 36.0402C41.8354 36.4818 41.4636 37.131 41.4565 37.8715C41.4529 38.3157 41.6105 38.6702 41.8874 38.8419C42.0952 38.9691 42.3451 38.9819 42.5933 38.8743C42.7044 38.8282 42.8056 38.6864 42.8468 38.5207C42.888 38.3593 42.854 38.2559 42.8378 38.2371C42.6237 38.1637 42.5144 37.9569 42.5646 37.7451C42.75 36.9815 43.4542 36.4878 44.2864 36.5407C44.9816 36.5681 45.7717 36.9584 46.1076 37.7477C46.8897 37.5794 47.7407 37.7759 48.4305 38.3046C49.802 39.3603 50.0708 41.4095 49.0442 42.9666C48.5658 43.6816 47.8805 44.2325 47.0017 44.6058C46.2922 44.9047 45.5522 45.0363 44.8078 45.0363C44.6519 45.0363 44.4951 45.0294 44.3393 45.0183C45.4608 45.4668 46.6989 45.7999 48.0131 45.8956H48.0874C48.9071 45.8956 49.7259 45.5052 50.2795 44.8492C50.3404 44.7629 50.3969 44.6852 50.4596 44.616C50.9389 43.9412 51.0965 43.1195 50.903 42.3012ZM37.1126 44.6075C36.9468 44.9423 36.7345 45.2362 36.4801 45.4822C36.6754 45.6419 36.9065 45.8349 37.169 46.0562C38.4769 47.1538 40.454 48.8126 42.4974 50.1015L42.5879 50.1604C43.9487 51.0257 45.1249 51.7739 46.2904 51.7876C47.1154 51.6586 47.928 51.4767 48.7253 51.2495C47.2023 51.012 45.5173 50.2954 43.6011 49.085C41.2791 47.6184 38.6901 45.764 37.1126 44.6075ZM38.7089 41.3497C38.7116 41.3523 38.7152 41.3548 38.717 41.3565C38.7179 41.3574 38.7188 41.3582 38.7188 41.3582C38.8541 41.4872 38.9741 41.6025 39.1022 41.7161H39.1031C39.1049 41.7178 39.1067 41.7196 39.1085 41.7204C39.1085 41.7213 39.1085 41.7213 39.1085 41.7221C39.1103 41.723 39.1112 41.7247 39.113 41.7255C41.1098 43.4339 44.1332 44.8766 46.6362 43.8225C47.3484 43.5184 47.9029 43.0768 48.2827 42.5097C49.0702 41.3147 48.8883 39.7601 47.8662 38.9717C47.1844 38.4498 46.4489 38.4806 45.9921 38.6847C45.4832 38.9204 45.2163 39.3723 45.2853 39.8891C45.3408 40.3187 45.5701 40.5895 45.9007 40.6143C46.1229 40.6424 46.4077 40.516 46.5045 40.2068C46.5609 40.024 46.7374 39.919 46.9399 39.9002C47.1423 39.9036 47.317 40.0317 47.369 40.2179C47.5526 40.862 47.2973 41.5513 46.6872 42.0612C45.9231 42.701 44.5113 43.0931 43.0824 42.5267C41.1492 41.7554 39.8099 40.2222 38.6292 38.8692C38.5065 38.7283 38.3873 38.5924 38.2691 38.4592C38.5208 39.3347 38.5074 40.1633 38.2153 40.8628C38.3784 41.0311 38.5414 41.1959 38.7089 41.3497ZM32.9371 36.6176C34.735 37.0601 35.9453 38.144 36.2562 39.591C36.3054 39.8224 36.1495 40.0497 35.905 40.0975C35.8907 40.1001 35.8754 40.1001 35.8611 40.1018C35.845 40.1035 35.8306 40.1052 35.8154 40.1052C35.8136 40.1052 35.8127 40.1052 35.8109 40.1052C35.8082 40.1052 35.8055 40.1052 35.8029 40.1043C35.7984 40.1052 35.7948 40.1052 35.7894 40.1052C35.5717 40.124 35.483 40.4144 35.4741 40.4494C35.4194 40.6988 35.4723 41.1754 36.0152 41.3787C36.3027 41.4829 36.558 41.4044 36.7211 41.3215C36.9424 41.2071 37.1412 41.0063 37.2801 40.7595C37.2837 40.7526 37.2846 40.7458 37.2882 40.739C37.5121 40.3307 37.9161 39.1861 36.8116 37.3701C36.6817 37.1557 36.5357 36.9593 36.3762 36.7867C36.3762 36.7859 36.3753 36.7842 36.3744 36.7833C36.3726 36.7816 36.3708 36.7808 36.3699 36.7791C34.5227 34.6761 30.5255 33.8971 27.0748 34.9716C25.7436 35.3868 24.5261 36.0445 23.4484 36.9191C23.6151 37.6828 23.8318 38.4413 24.1015 39.1852C26.7979 36.5971 30.5013 36.0137 32.9371 36.6176ZM36.5688 42.2611C36.4783 42.2756 36.3869 42.2842 36.2956 42.2842C36.0904 42.2842 35.888 42.25 35.6936 42.1799C34.7279 41.8186 34.4475 40.9397 34.5935 40.2743C34.6499 40.0198 34.7637 39.8071 34.9169 39.6397C33.5902 38.9102 32.0878 38.6685 30.5694 38.9136C31.6408 39.0759 32.6325 39.5021 33.4271 40.1761C34.6078 41.1772 35.1193 42.572 34.7959 43.9079C34.7494 44.1044 34.555 44.2009 34.3516 44.2402C34.1393 44.2385 33.9583 44.095 33.9162 43.8968C33.8777 43.7149 33.6994 43.6423 33.5579 43.6346C33.4629 43.6218 33.1449 43.6431 33.0052 44.0557C32.8914 44.3854 32.9935 44.6587 33.0983 44.8304C33.3662 45.2968 33.9198 45.5471 34.5245 45.4711C34.9052 45.4292 35.2403 45.3147 35.5269 45.1294C35.9749 44.8407 36.2938 44.3939 36.4712 43.8046C36.6037 43.3425 36.636 42.8146 36.5688 42.2611ZM24.8683 31.4918C25.1442 31.5379 25.3745 31.6558 25.5501 31.8326C26.5713 30.9861 27.5289 30.641 28.2349 30.8836C28.397 30.9391 28.5377 31.0271 28.6532 31.139C29.1719 30.5257 29.7139 30.2242 30.2935 30.2191H30.3078C30.9842 30.2191 31.6265 30.6308 32.2616 31.4738C32.508 31.2697 32.8027 31.1527 33.1351 31.1347C33.6493 31.1108 34.1814 31.3192 34.6732 31.6224C34.6768 31.5234 34.6875 31.4251 34.7144 31.3337C34.7494 31.2176 34.813 31.0818 34.9249 30.9519C34.0309 30.1909 33.0742 29.3495 32.0681 28.4321C31.5629 27.9683 28.2492 28.0657 27.7601 28.4467C27.0551 28.9899 26.3572 29.5836 25.6817 30.1593C25.112 30.6453 24.5611 31.1142 24.0119 31.5498C24.3093 31.4755 24.6041 31.4465 24.8683 31.4918ZM33.9807 42.8479C33.9073 42.1048 33.5104 41.395 32.8287 40.8167C31.7877 39.9335 29.8716 39.2655 27.606 40.0249C26.7773 40.5246 26.0177 41.1592 25.3422 41.9109C25.516 42.2218 25.6835 42.5054 25.8493 42.7685C26.8813 41.7315 28.3881 41.3113 29.5302 41.3651C30.6455 41.4189 31.5324 41.8827 31.9642 42.6369C32.0287 42.7497 32.0368 42.8838 31.9866 43.0025C31.9364 43.1221 31.8325 43.2126 31.7044 43.2511C31.1911 43.4057 31.0908 43.7593 31.0747 43.9549C31.0496 44.2932 31.2341 44.622 31.5235 44.7638C31.5297 44.7672 31.5369 44.7698 31.5441 44.7741C31.7089 44.8458 31.906 44.8569 32.1228 44.8065C32.0287 44.4768 32.0341 44.1257 32.1488 43.7892C32.3709 43.1392 32.9586 42.7411 33.609 42.7779C33.7389 42.7856 33.8643 42.8086 33.9807 42.8479Z" fill="white"/>
<path d="M60.9811 33.5731C60.9328 33.5415 60.8575 33.4971 60.7697 33.4646C60.8378 33.7764 60.7706 34.1052 60.5655 34.4042C60.4194 34.6195 60.2215 34.7903 59.9975 34.9082C60.5807 35.4873 60.9955 36.3423 61.197 37.4049C61.4013 38.4786 61.3726 39.7761 61.06 41.1461C61.2597 40.7421 61.447 40.3296 61.6181 39.9085C61.6208 39.8974 61.6226 39.8862 61.6261 39.8751C62.7988 36.0041 61.7157 34.06 60.9811 33.5731ZM54.962 29.6772C55.8211 30.1786 56.7618 30.9662 57.499 32.1894C57.6773 31.7495 57.9917 31.3565 58.4101 31.0601C57.663 30.0702 56.1481 29.696 54.962 29.6772ZM52.9563 47.1509C52.7063 47.6959 52.1411 48.0094 51.4772 47.9889C50.748 47.9504 50.1648 47.4362 49.9624 46.7102C49.5566 46.7555 49.1606 46.7777 48.7709 46.7777C48.5362 46.7777 48.3024 46.7691 48.0686 46.7537H47.9871C47.9862 46.7537 47.9853 46.7529 47.9844 46.7529C47.9736 46.7529 47.9638 46.7529 47.9539 46.7529C47.9521 46.7529 47.9521 46.752 47.9512 46.752C47.8867 46.7512 47.8178 46.7478 47.7568 46.7367C47.7497 46.7358 47.7443 46.7324 47.738 46.7307C46.5851 46.6265 45.4913 46.3591 44.4808 45.9961C46.4006 47.3337 48.4359 48.4424 50.2284 48.6876C51.5803 48.8764 52.5343 48.5782 52.9079 47.8471C53.0611 47.549 53.0862 47.2176 53.0315 46.94C53.0118 47.0109 52.9885 47.0809 52.9563 47.1509ZM46.0216 41.4741C45.9571 41.4767 45.8917 41.475 45.8254 41.469C45.2458 41.4229 44.5238 41.0086 44.3921 39.9947C44.2909 39.2226 44.6313 38.5179 45.2924 38.084C45.1168 37.6483 44.6537 37.4134 44.2497 37.3981C44.1126 37.3861 43.7426 37.4057 43.5437 37.7021C43.6772 37.8644 43.7561 38.0797 43.765 38.3265C43.782 38.8143 43.5106 39.4276 42.9588 39.6582C42.4347 39.8845 41.8623 39.8495 41.3964 39.5608C40.8571 39.226 40.5499 38.6067 40.557 37.8636C40.5642 37.059 40.8822 36.3363 41.4582 35.77C40.5758 35.2772 38.7 34.0924 35.604 31.5154C35.5896 31.5368 35.5834 31.5556 35.5798 31.5675C35.5207 31.7648 35.6685 32.2602 36.2776 33.0051C36.3412 33.0709 36.4246 33.1682 36.5088 33.2647C36.6664 33.4475 36.6413 33.7209 36.4496 33.8712C36.3654 33.9378 36.2633 33.9711 36.1621 33.9711C36.034 33.9711 35.9068 33.9182 35.8199 33.8157L35.8136 33.8097C35.7383 33.7217 35.6631 33.6355 35.5878 33.5552C35.587 33.5535 35.5861 33.5526 35.5852 33.5509C35.5843 33.5509 35.5834 33.55 35.5834 33.5492C34.6804 32.5566 33.7666 31.9553 33.187 31.9912C33.0123 32.0006 32.8753 32.0749 32.7561 32.2184C32.8708 32.4097 32.9828 32.6079 33.0885 32.8163C33.1978 33.029 33.1064 33.2852 32.8824 33.3886C32.6612 33.492 32.3897 33.404 32.2804 33.1904C32.1183 32.8744 31.9454 32.5771 31.7653 32.3072C31.235 31.5017 30.7306 31.0764 30.3069 31.0764H30.3015C29.8957 31.0798 29.4308 31.4761 28.9587 32.2218C28.8575 32.3815 28.6648 32.4627 28.4713 32.4183C28.2814 32.3747 28.1417 32.2218 28.1247 32.0365C28.0987 31.7495 27.9688 31.7042 27.9258 31.6888C27.5845 31.5701 26.7621 31.8673 25.7686 32.8103C25.3745 33.1776 24.9731 33.6295 24.5754 34.1548C24.4867 34.271 24.3496 34.3325 24.2108 34.3325C24.1185 34.3325 24.0271 34.3068 23.9465 34.2513C23.7449 34.1129 23.6992 33.8447 23.8453 33.6525C24.1973 33.1887 24.5521 32.7796 24.905 32.4268C24.8522 32.373 24.7877 32.3482 24.7124 32.3363C24.2305 32.2585 23.3633 32.6873 23.0229 33.0307C23.0247 34.0275 23.1062 35.0072 23.263 35.9562C24.2986 35.1849 25.4461 34.593 26.686 34.1932C27.1948 33.685 27.5836 33.0375 27.5881 33.0316C27.7099 32.8249 27.9849 32.754 28.2008 32.8701C28.4176 32.988 28.4928 33.2485 28.3701 33.4552C28.3621 33.4689 28.2725 33.6175 28.1256 33.8294C31.5458 33.1913 35.0951 34.0813 36.98 36.1416C37.7808 36.5584 38.4957 37.375 39.3208 38.3197C40.4361 39.5967 41.6992 41.0454 43.4282 41.7347C44.453 42.1412 45.4519 41.9012 46.0216 41.4741ZM37.9976 34.9722C37.909 35.0824 37.7755 35.1396 37.642 35.1396C37.5452 35.1396 37.4485 35.1097 37.3661 35.05C37.2218 34.9432 37.143 34.8672 37.143 34.8672C36.9701 34.6989 36.971 34.4273 37.1466 34.2607C37.3213 34.095 37.6044 34.095 37.7773 34.259C37.7871 34.2658 37.8346 34.3111 37.917 34.3709C38.1132 34.5161 38.149 34.786 37.9976 34.9722ZM31.123 45.5314C30.5819 45.2385 30.0588 45.0147 29.5526 44.8584C31.0083 45.8082 32.3736 47.3124 33.5668 48.6269C34.2916 49.4264 34.976 50.1781 35.5619 50.6804C36.7829 51.1467 38.0388 51.4935 39.3199 51.7216C38.1284 51.0673 36.8823 50.1269 35.5027 48.855C33.781 47.2705 32.3888 46.2139 31.123 45.5314ZM30.177 43.8931C30.2146 43.396 30.4673 42.9749 30.8767 42.6947C30.5488 42.4171 30.065 42.2497 29.4854 42.2224C28.4875 42.1729 27.176 42.5632 26.35 43.5216C26.4315 43.6403 26.514 43.7565 26.5991 43.8701C27.7439 43.613 28.9255 43.7078 30.1788 44.1588C30.1716 44.0708 30.1707 43.9828 30.177 43.8931Z" fill="#27498C"/>
<path d="M60.3129 37.5576C60.0764 36.3148 59.5003 35.4103 58.7317 35.0746C58.7246 35.072 58.7174 35.0695 58.7111 35.0669C59.4072 37.0896 59.7727 41.2203 55.814 44.2996C56.4912 44.7728 57.0126 45.4331 57.3432 46.23C59.9993 43.3711 60.7527 39.8818 60.3129 37.5576ZM51.6905 40.0091C51.669 40.0091 51.6475 40.0065 51.626 40.0065C51.5937 40.361 51.5095 40.7146 51.368 41.052C51.471 41.2382 51.5579 41.4304 51.6313 41.6277C52.976 41.0444 53.9784 40.109 54.4774 38.9559C54.5401 38.8099 54.5921 38.6621 54.6378 38.5143C54.5921 38.5698 54.5455 38.6254 54.4971 38.6792C53.7401 39.5222 52.6893 40.0091 51.6905 40.0091ZM50.9693 49.5997C50.7042 49.6005 50.4148 49.5809 50.1004 49.5373C47.5123 49.1829 44.2676 47.2584 39.8914 43.483C39.8771 43.4727 39.8682 43.4642 39.8556 43.4548C39.405 43.1225 38.9607 42.7621 38.4957 42.3495C38.4939 42.3478 38.4922 42.3461 38.4913 42.3444C38.3605 42.2291 38.2386 42.1129 38.1168 41.9967C38.0998 41.9839 38.0837 41.9677 38.0684 41.9515C37.9556 41.8473 37.8427 41.7371 37.7325 41.626C37.6366 41.7277 37.5363 41.8234 37.4261 41.9045C37.5327 42.5468 37.5273 43.1729 37.4091 43.7427C38.9419 44.8693 41.6706 46.8356 44.0992 48.3697C47.2857 50.3847 49.7268 50.9356 51.7801 50.1079C51.7854 50.1054 51.8141 50.0925 51.8401 50.0814C51.9207 50.043 52.0022 50.0037 52.0828 49.961C52.1017 49.9499 52.1223 49.9396 52.1429 49.9294C52.1456 49.9285 52.1473 49.9277 52.1491 49.926C52.8067 49.5911 53.2062 49.1231 53.4248 48.6507C53.0414 49.0957 52.3122 49.5997 50.9693 49.5997ZM41.9984 50.816C39.9067 49.4946 37.8212 47.7453 36.5742 46.6998C36.2364 46.4154 35.9543 46.1787 35.7375 46.0045C35.4015 46.1711 35.0324 46.2778 34.6329 46.3222C34.5245 46.3351 34.417 46.3419 34.3104 46.3419C34.1518 46.3419 33.9969 46.3231 33.8464 46.2958C34.5496 46.8382 35.3039 47.4796 36.1281 48.2381C38.984 50.8707 41.1922 52.0076 43.5133 52.0375H43.516C43.671 52.0358 43.8152 52.0289 43.9496 52.0212V52.023C43.9809 52.0221 44.0105 52.0212 44.0365 52.0212C43.3924 51.7026 42.7492 51.2935 42.0889 50.8741L41.9984 50.816ZM34.8094 38.6245C34.3436 38.0778 33.6305 37.6738 32.7122 37.4475C30.3678 36.8709 26.8194 37.6029 24.4536 40.086C24.5906 40.4174 24.7429 40.7505 24.9086 41.0845C25.5877 40.3747 26.3402 39.7682 27.1563 39.2796C27.1617 39.2762 27.1679 39.2745 27.1724 39.2711C27.1733 39.2711 27.1733 39.2702 27.1742 39.2702C27.1778 39.2685 27.1805 39.2668 27.1841 39.2651C27.1858 39.2643 27.1867 39.2626 27.1885 39.2617C27.1903 39.2609 27.1921 39.2609 27.1939 39.26C29.6628 37.7934 32.4641 37.5875 34.8094 38.6245ZM27.3426 44.8181C28.9874 46.798 31.0128 48.4363 33.3071 49.6501C33.1691 49.4989 33.0285 49.346 32.8869 49.1897C31.2413 47.3754 29.2561 45.1828 27.3426 44.8181Z" fill="#0477BF"/>
<mask id="mask0_576_1959" style="mask-type:luminance" maskUnits="userSpaceOnUse" x="22" y="13" width="42" height="40">
<path d="M22.1226 13.0938H63.9186V52.9457H22.1226V13.0938Z" fill="white"/>
</mask>
<g mask="url(#mask0_576_1959)">
<path d="M63.8756 33.0035C63.8756 32.7814 63.8685 32.5645 63.8604 32.3441C63.864 32.3245 63.8676 32.3048 63.8676 32.2835C63.8676 32.2578 63.8622 32.2314 63.8568 32.2066C63.4125 21.4885 54.2526 13.0938 43.0036 13.0938C31.8379 13.0938 22.678 21.415 22.1513 32.0315C22.1316 32.3074 22.1226 32.591 22.1226 32.866V33.0035C22.1226 34.3164 22.2534 35.6053 22.5078 36.8327C22.7345 37.9551 23.0722 39.0707 23.5103 40.1452C23.7593 40.773 24.0603 41.4145 24.4034 42.0526C24.4043 42.0543 24.4052 42.056 24.4061 42.0577C24.7635 42.7154 25.0869 43.2501 25.4193 43.7293C25.6146 44.0308 25.8305 44.3332 26.0482 44.6108C28.3549 47.6687 31.5002 50.0305 35.1427 51.4398L35.1436 51.439C35.1462 51.4398 35.1507 51.4424 35.1543 51.4441L35.1516 51.4492C37.6519 52.4145 40.2946 52.9047 43.0036 52.9047C43.1837 52.9047 43.353 52.9047 43.5071 52.8962C43.6719 52.8962 43.8466 52.8945 43.9657 52.8791C43.9729 52.8791 43.9792 52.8791 43.9863 52.8783C44.0741 52.8783 44.1673 52.8774 44.2569 52.8689V52.8697C45.038 52.8219 45.7386 52.7467 46.3961 52.6417C46.4006 52.6408 46.4042 52.64 46.4096 52.6391C46.4122 52.6382 46.4149 52.6382 46.4176 52.6374C48.4046 52.3282 50.3279 51.7422 52.1339 50.8957C52.159 50.8855 52.2119 50.8667 52.2361 50.853C52.237 50.8522 52.237 50.8522 52.2378 50.8522V50.8513L52.46 50.7505C52.4958 50.7335 52.5532 50.7061 52.6159 50.6617C54.3762 49.799 56.0057 48.6869 57.4579 47.3544L57.457 47.3535C57.4928 47.3296 57.5277 47.3014 57.5367 47.2801C59.7181 45.2694 61.3771 42.8845 62.4692 40.193L62.4683 40.1922C62.479 40.1649 62.4889 40.1358 62.4942 40.1051C63.4098 37.8577 63.8756 35.4695 63.8756 33.0035ZM52.7977 35.215C52.7485 35.1782 52.6965 35.1458 52.6446 35.1159C52.7377 35.0749 52.8434 35.045 52.9554 35.0305C53.5261 34.9485 54.0671 35.2449 54.4049 35.8154C54.6844 36.5372 54.464 37.3965 53.8136 38.1225C53.2045 38.7999 52.3686 39.1791 51.6108 39.1492C51.5633 38.7871 51.463 38.4317 51.3142 38.0909C51.4441 38.0978 51.5749 38.0978 51.7057 38.0815C52.3668 37.9987 52.9151 37.6408 53.1704 37.1257C53.5825 36.3023 53.2806 35.572 52.7977 35.215ZM51.626 40.0068C51.6475 40.0068 51.669 40.0094 51.6905 40.0094C52.6893 40.0094 53.7402 39.5225 54.4971 38.6795C54.5455 38.6256 54.5921 38.5701 54.6378 38.5146C54.5921 38.6624 54.5401 38.8101 54.4774 38.9562C53.9785 40.1093 52.976 41.0446 51.6314 41.628C51.5579 41.4307 51.471 41.2385 51.368 41.0523C51.5095 40.7149 51.5937 40.3613 51.626 40.0068ZM51.8482 42.4754C53.4804 41.8091 54.7023 40.6859 55.3088 39.2834C55.8409 38.0534 55.8472 36.7234 55.3276 35.6446C55.2944 35.572 55.2514 35.4985 55.2066 35.4242C55.2066 35.4242 55.2066 35.4242 55.2066 35.4234C55.204 35.42 55.2031 35.4157 55.2004 35.4114C54.5822 34.3497 53.5744 34.0781 52.8264 34.1814C52.0596 34.2865 51.4674 34.7682 51.3169 35.4054C51.2748 35.5857 51.3572 35.771 51.5221 35.8658C51.6878 35.9606 51.8974 35.9487 52.0452 35.8291C52.065 35.8146 52.1501 35.8214 52.2459 35.8923C52.4296 36.029 52.5684 36.3356 52.3579 36.7567C52.2352 37.0053 51.9404 37.1855 51.5902 37.2299C51.1548 37.2872 50.7391 37.1257 50.4372 36.7841C50.3718 36.7149 50.3172 36.6252 50.2688 36.5517C49.9176 35.953 49.8433 35.2056 50.0699 34.5513C50.3235 33.8201 50.9389 33.2282 51.8535 32.8361C53.9632 31.923 56.5334 32.7541 57.5833 34.6931C58.3215 36.0614 59.3893 40.6312 54.9719 43.8395C53.9372 43.4132 52.7718 43.3893 51.8034 43.7344C51.8894 43.3261 51.9064 42.9033 51.8482 42.4754ZM50.4596 44.6159C50.3969 44.6851 50.3405 44.7628 50.2796 44.8491C49.7259 45.5051 48.9071 45.8955 48.0875 45.8955H48.0131C46.6989 45.7998 45.4609 45.4667 44.3393 45.0182C44.4952 45.0293 44.6519 45.0362 44.8078 45.0362C45.5522 45.0362 46.2922 44.9046 47.0017 44.6057C47.8805 44.2324 48.5658 43.6815 49.0442 42.9665C50.0708 41.4094 49.8021 39.3602 48.4306 38.3045C47.7408 37.7757 46.8897 37.5793 46.1077 37.7476C45.7717 36.9583 44.9816 36.568 44.2864 36.5406C43.4542 36.4877 42.7501 36.9814 42.5646 37.745C42.5145 37.9568 42.6238 38.1635 42.8379 38.237C42.854 38.2558 42.888 38.3591 42.8468 38.5206C42.8056 38.6863 42.7044 38.8281 42.5933 38.8742C42.3452 38.9818 42.0952 38.969 41.8874 38.8417C41.6106 38.6701 41.4529 38.3156 41.4565 37.8714C41.4637 37.1309 41.8354 36.4817 42.5055 36.0401C43.6172 35.2995 45.4564 35.2397 46.3128 36.3399C46.4275 36.4851 46.6263 36.55 46.8064 36.4928C47.8151 36.1981 48.9466 36.5346 49.7662 37.3734C50.3638 37.9731 50.7185 38.7649 50.7409 39.5533C50.766 40.0094 50.6683 40.4724 50.4596 40.8917C50.3969 41.0216 50.4041 41.1711 50.4793 41.2949C50.6755 41.6101 50.8188 41.9501 50.9031 42.3011C51.0966 43.1194 50.9389 43.9411 50.4596 44.6159ZM51.4773 47.989C52.1411 48.0095 52.7064 47.696 52.9563 47.1511C52.9886 47.081 53.0118 47.011 53.0316 46.9401C53.0862 47.2177 53.0611 47.5491 52.9079 47.8472C52.5344 48.5784 51.5803 48.8765 50.2285 48.6877C48.4359 48.4426 46.4006 47.3339 44.4808 45.9962C45.4913 46.3593 46.5851 46.6266 47.7381 46.7308C47.7443 46.7325 47.7497 46.736 47.7569 46.7368C47.8178 46.7479 47.8868 46.7513 47.9513 46.7522C47.9522 46.7522 47.9522 46.753 47.954 46.753C47.9638 46.753 47.9737 46.753 47.9844 46.753C47.9853 46.753 47.9862 46.7539 47.9871 46.7539H48.0686C48.3025 46.7693 48.5363 46.7778 48.771 46.7778C49.1607 46.7778 49.5566 46.7556 49.9624 46.7103C50.1649 47.4364 50.7481 47.9506 51.4773 47.989ZM38.2691 38.4591C38.3874 38.5923 38.5065 38.7281 38.6292 38.8691C39.81 40.2221 41.1492 41.7553 43.0824 42.5266C44.5113 43.0929 45.9231 42.7009 46.6873 42.0611C47.2973 41.5512 47.5526 40.8619 47.369 40.2178C47.317 40.0316 47.1423 39.9035 46.9399 39.9001C46.7374 39.9189 46.561 40.0239 46.5045 40.2067C46.4078 40.5159 46.1229 40.6423 45.9007 40.6141C45.5702 40.5894 45.3408 40.3186 45.2853 39.889C45.2163 39.3722 45.4833 38.9203 45.9921 38.6846C46.449 38.4804 47.1845 38.4497 47.8662 38.9716C48.8883 39.76 49.0702 41.3146 48.2827 42.5095C47.9029 43.0767 47.3484 43.5183 46.6362 43.8224C44.1332 44.8764 41.1098 43.4337 39.113 41.7254C39.1112 41.7246 39.1103 41.7229 39.1085 41.722C39.1085 41.7211 39.1085 41.7211 39.1085 41.7203C39.1067 41.7194 39.1049 41.7177 39.1031 41.716H39.1022C38.9741 41.6024 38.8541 41.4871 38.7188 41.3581C38.7188 41.3581 38.7179 41.3573 38.717 41.3564C38.7152 41.3547 38.7117 41.3521 38.709 41.3496C38.5415 41.1958 38.3784 41.031 38.2154 40.8627C38.5074 40.1631 38.5208 39.3346 38.2691 38.4591ZM57.4991 32.1895C56.7618 30.9663 55.8212 30.1788 54.9621 29.6774C56.1482 29.6962 57.663 30.0703 58.4101 31.0603C57.9918 31.3567 57.6773 31.7496 57.4991 32.1895ZM53.4418 29.006C51.9431 28.5302 50.327 28.5482 49.2852 29.0607C48.7978 29.2999 48.4789 29.633 48.3643 30.0216C48.3248 30.1566 48.3562 30.3026 48.4494 30.4094C48.521 30.494 48.6223 30.5469 48.7325 30.5632C48.8023 30.6477 48.9143 30.9065 48.8731 31.2183C48.8337 31.5181 48.6662 31.7325 48.3777 31.8572C47.8975 32.0665 47.5267 31.8991 47.3009 31.7223C46.8449 31.3678 46.4902 30.5632 46.7276 29.5629C47.0689 28.0989 48.1735 27.3378 49.0406 26.9577C50.525 26.306 52.4636 26.2693 53.6524 26.8715C53.7545 26.9244 53.8754 26.9355 53.9883 26.9048C55.8391 26.3897 58.0106 26.7211 59.7906 27.788C61.0878 28.567 62.0463 29.6671 62.5767 30.951C61.5706 30.4137 60.3774 30.3676 59.6562 30.5264C59.4959 30.5606 59.3472 30.6025 59.2047 30.652C57.9595 28.889 54.9253 28.5268 53.4418 29.006ZM43.0036 13.9513C52.6508 13.9513 60.6865 20.4054 62.5578 29.1273C61.9621 28.3176 61.1926 27.6171 60.2699 27.0619C58.3313 25.8994 55.9681 25.5193 53.9095 26.0361C52.4717 25.3895 50.3476 25.4399 48.6644 26.1779C47.6136 26.64 46.2716 27.5693 45.8488 29.375C45.5675 30.5691 45.9133 31.7513 46.7321 32.3877C47.3206 32.8455 48.0552 32.9369 48.7486 32.6396C49.6865 32.2356 49.9114 31.3251 49.7188 30.6025C49.6534 30.3582 49.5468 30.1532 49.4142 30.0028C49.4885 29.9388 49.5853 29.8781 49.6973 29.8226C50.4086 29.4732 51.7962 29.3511 53.2994 29.8653C54.1899 30.1651 55.582 30.8655 56.6015 32.4398C55.1206 31.5258 53.1785 31.3191 51.4827 32.0537C50.0314 32.6772 49.4482 33.6091 49.2162 34.2822C49.0406 34.7862 49.0039 35.332 49.0926 35.8607C48.375 35.5447 47.5912 35.4456 46.8378 35.6002C45.6696 34.3873 43.6271 34.3992 42.2233 35.1953C41.616 34.8835 39.6317 33.7535 35.9507 30.6657C35.9373 30.6546 35.9238 30.646 35.9095 30.6375C34.9169 29.8047 33.8338 28.8557 32.6917 27.8127C31.7833 26.9791 27.9473 27.1935 27.193 27.7811C26.4719 28.3355 25.766 28.9368 25.0825 29.5202C24.4079 30.0942 23.7602 30.6452 23.1206 31.138C24.1015 21.4279 32.6505 13.9513 43.0036 13.9513ZM34.925 30.9518C34.813 31.0816 34.7494 31.2175 34.7145 31.3336C34.6876 31.425 34.6768 31.5232 34.6732 31.6223C34.1814 31.3191 33.6493 31.1107 33.1351 31.1346C32.8027 31.1525 32.508 31.2696 32.2617 31.4737C31.6265 30.6306 30.9842 30.2189 30.3078 30.2189H30.2935C29.7139 30.2241 29.1719 30.5256 28.6532 31.1389C28.5377 31.027 28.397 30.939 28.2349 30.8835C27.529 30.6409 26.5713 30.986 25.5501 31.8325C25.3745 31.6556 25.1443 31.5378 24.8683 31.4916C24.6041 31.4464 24.3093 31.4754 24.0119 31.5497C24.5611 31.1141 25.112 30.6452 25.6818 30.1591C26.3572 29.5834 27.0551 28.9898 27.7601 28.4465C28.2492 28.0656 31.5629 27.9682 32.0682 28.432C33.0742 29.3494 34.0309 30.1907 34.925 30.9518ZM23.0229 33.0309C23.3633 32.6875 24.2305 32.2587 24.7125 32.3364C24.7877 32.3484 24.8522 32.3731 24.9051 32.427C24.5521 32.7797 24.1974 33.1889 23.8453 33.6527C23.6993 33.8449 23.745 34.1131 23.9465 34.2515C24.0272 34.307 24.1185 34.3326 24.2108 34.3326C24.3497 34.3326 24.4867 34.2711 24.5754 34.1549C24.9732 33.6296 25.3745 33.1778 25.7687 32.8105C26.7621 31.8675 27.5845 31.5702 27.9258 31.689C27.9688 31.7043 28.0987 31.7496 28.1247 32.0366C28.1417 32.222 28.2815 32.3749 28.4714 32.4184C28.6649 32.4628 28.8575 32.3817 28.9587 32.222C29.4308 31.4763 29.8958 31.0799 30.3016 31.0765H30.307C30.7307 31.0765 31.235 31.5019 31.7654 32.3074C31.9454 32.5773 32.1183 32.8745 32.2805 33.1906C32.3898 33.4041 32.6612 33.4921 32.8825 33.3887C33.1064 33.2854 33.1978 33.0291 33.0885 32.8165C32.9828 32.608 32.8708 32.4099 32.7562 32.2185C32.8753 32.075 33.0124 32.0007 33.1871 31.9913C33.7667 31.9555 34.6804 32.5568 35.5834 33.5493C35.5834 33.5502 35.5843 33.551 35.5852 33.551C35.5861 33.5527 35.587 33.5536 35.5879 33.5553C35.6631 33.6356 35.7384 33.7219 35.8136 33.8099L35.8199 33.8158C35.9068 33.9183 36.034 33.9713 36.1621 33.9713C36.2633 33.9713 36.3655 33.938 36.4497 33.8714C36.6414 33.721 36.6665 33.4477 36.5088 33.2649C36.4246 33.1684 36.3413 33.071 36.2777 33.0052C35.6685 32.2604 35.5207 31.765 35.5798 31.5677C35.5834 31.5557 35.5897 31.5369 35.604 31.5156C38.7 34.0926 40.5759 35.2773 41.4583 35.7702C40.8823 36.3365 40.5642 37.0591 40.5571 37.8637C40.5499 38.6069 40.8572 39.2261 41.3965 39.561C41.8623 39.8497 42.4347 39.8847 42.9588 39.6583C43.5106 39.4277 43.7821 38.8144 43.7651 38.3267C43.7561 38.0798 43.6773 37.8646 43.5438 37.7023C43.7427 37.4059 44.1126 37.3862 44.2497 37.3982C44.6537 37.4136 45.1169 37.6485 45.2925 38.0841C44.6313 38.518 44.2909 39.2227 44.3921 39.9949C44.5238 41.0088 45.2459 41.423 45.8255 41.4692C45.8918 41.4751 45.9572 41.4769 46.0217 41.4743C45.4519 41.9014 44.4531 42.1414 43.4282 41.7348C41.6993 41.0455 40.4361 39.5968 39.3208 38.3199C38.4958 37.3751 37.7809 36.5586 36.98 36.1417C35.0952 34.0815 31.5459 33.1914 28.1256 33.8295C28.2725 33.6177 28.3621 33.469 28.3702 33.4554C28.4929 33.2487 28.4176 32.9881 28.2008 32.8703C27.985 32.7541 27.7099 32.825 27.5881 33.0317C27.5836 33.0377 27.1948 33.6851 26.686 34.1934C25.4462 34.5931 24.2986 35.1851 23.263 35.9564C23.1062 35.0074 23.0247 34.0277 23.0229 33.0309ZM24.1015 39.1851C23.8319 38.4411 23.6151 37.6826 23.4485 36.919C24.5261 36.0444 25.7436 35.3866 27.0748 34.9715C30.5255 33.897 34.5227 34.676 36.37 36.7789C36.3708 36.7806 36.3726 36.7815 36.3744 36.7832C36.3753 36.7841 36.3762 36.7858 36.3762 36.7866C36.5357 36.9592 36.6817 37.1556 36.8116 37.37C37.9162 39.186 37.5121 40.3306 37.2882 40.7389C37.2846 40.7457 37.2837 40.7525 37.2801 40.7594C37.1413 41.0062 36.9424 41.2069 36.7211 41.3214C36.5581 41.4042 36.3028 41.4828 36.0152 41.3786C35.4723 41.1753 35.4195 40.6987 35.4741 40.4493C35.4831 40.4143 35.5718 40.1239 35.7895 40.1051C35.7948 40.1051 35.7984 40.1051 35.8029 40.1042C35.8056 40.1051 35.8083 40.1051 35.811 40.1051C35.8127 40.1051 35.8136 40.1051 35.8154 40.1051C35.8307 40.1051 35.845 40.1034 35.8611 40.1016C35.8755 40.0999 35.8907 40.0999 35.905 40.0974C36.1496 40.0495 36.3055 39.8223 36.2562 39.5909C35.9453 38.1439 34.7351 37.06 32.9371 36.6175C30.5013 36.0136 26.798 36.597 24.1015 39.1851ZM33.4271 40.176C32.6325 39.502 31.6408 39.0758 30.5694 38.9135C32.0879 38.6684 33.5902 38.9101 34.9169 39.6395C34.7637 39.807 34.65 40.0196 34.5935 40.2742C34.4475 40.9396 34.7279 41.8185 35.6936 42.1798C35.888 42.2499 36.0905 42.284 36.2956 42.284C36.387 42.284 36.4783 42.2755 36.5688 42.261C36.636 42.8145 36.6038 43.3424 36.4712 43.8045C36.2938 44.3938 35.9749 44.8406 35.527 45.1293C35.2403 45.3146 34.9053 45.4291 34.5245 45.4709C33.9198 45.547 33.3662 45.2967 33.0984 44.8303C32.9936 44.6586 32.8914 44.3853 33.0052 44.0556C33.145 43.643 33.463 43.6217 33.5579 43.6345C33.6995 43.6422 33.8777 43.7148 33.9163 43.8967C33.9584 44.0949 34.1393 44.2384 34.3516 44.2401C34.555 44.2008 34.7494 44.1043 34.796 43.9078C35.1194 42.5719 34.6078 41.177 33.4271 40.176ZM24.4536 40.0863C26.8195 37.6032 30.3679 36.8712 32.7123 37.4477C33.6305 37.6741 34.3436 38.0781 34.8094 38.6248C32.4641 37.5878 29.6628 37.7937 27.1939 39.2603C27.1921 39.2611 27.1903 39.2611 27.1886 39.262C27.1868 39.2629 27.1859 39.2646 27.1841 39.2654C27.1805 39.2671 27.1778 39.2688 27.1742 39.2705C27.1733 39.2705 27.1733 39.2714 27.1724 39.2714C27.168 39.2748 27.1617 39.2765 27.1563 39.2799C26.3402 39.7685 25.5877 40.375 24.9087 41.0848C24.7429 40.7508 24.5906 40.4177 24.4536 40.0863ZM25.8493 42.7684C25.6836 42.5053 25.516 42.2217 25.3422 41.9108C26.0177 41.1591 26.7774 40.5245 27.606 40.0248C29.8716 39.2654 31.7878 39.9334 32.8287 40.8166C33.5105 41.3949 33.9073 42.1047 33.9808 42.8478C33.8643 42.8085 33.7389 42.7854 33.609 42.7777C32.9586 42.741 32.371 43.1391 32.1488 43.7891C32.0341 44.1256 32.0287 44.4767 32.1228 44.8064C31.906 44.8568 31.7089 44.8457 31.5441 44.7739C31.5369 44.7697 31.5298 44.7671 31.5235 44.7637C31.2341 44.6219 31.0496 44.293 31.0747 43.9548C31.0908 43.7592 31.1911 43.4056 31.7045 43.251C31.8326 43.2125 31.9365 43.122 31.9866 43.0024C32.0368 42.8837 32.0287 42.7496 31.9642 42.6368C31.5325 41.8826 30.6456 41.4188 29.5303 41.365C28.3881 41.3111 26.8813 41.7314 25.8493 42.7684ZM26.3501 43.5217C27.176 42.5634 28.4875 42.173 29.4855 42.2225C30.0651 42.2499 30.5488 42.4173 30.8767 42.6949C30.4673 42.9751 30.2147 43.3962 30.1771 43.8933C30.1708 43.983 30.1717 44.071 30.1788 44.1589C28.9256 43.7079 27.744 43.6131 26.5991 43.8702C26.514 43.7566 26.4316 43.6405 26.3501 43.5217ZM27.3426 44.8184C29.2561 45.1831 31.2413 47.3757 32.887 49.19C33.0285 49.3463 33.1691 49.4992 33.3071 49.6504C31.0129 48.4366 28.9874 46.7983 27.3426 44.8184ZM35.5619 50.6805C34.976 50.1782 34.2916 49.4266 33.5669 48.6271C32.3736 47.3125 31.0084 45.8083 29.5527 44.8585C30.0588 45.0148 30.582 45.2386 31.1231 45.5316C32.3889 46.2141 33.781 47.2707 35.5028 48.8551C36.8824 50.127 38.1285 51.0674 39.3199 51.7217C38.0389 51.4937 36.7829 51.1469 35.5619 50.6805ZM43.9496 52.0232V52.0215C43.8152 52.0292 43.671 52.0361 43.516 52.0378H43.5133C41.1922 52.0079 38.984 50.871 36.1281 48.2384C35.3039 47.4799 34.5496 46.8385 33.8464 46.2961C33.9969 46.3234 34.1519 46.3422 34.3104 46.3422C34.417 46.3422 34.5245 46.3354 34.6329 46.3225C35.0325 46.2781 35.4016 46.1714 35.7375 46.0048C35.9543 46.179 36.2365 46.4156 36.5742 46.7001C37.8212 47.7456 39.9067 49.4949 41.9985 50.8163L42.089 50.8744C42.7492 51.2938 43.3924 51.7029 44.0365 52.0215C44.0105 52.0215 43.981 52.0224 43.9496 52.0232ZM46.2904 51.7875C45.1249 51.7738 43.9487 51.0256 42.5879 50.1603L42.4975 50.1014C40.4541 48.8124 38.477 47.1536 37.169 46.056C36.9066 45.8348 36.6754 45.6418 36.4801 45.482C36.7346 45.236 36.9469 44.9422 37.1126 44.6074C38.6902 45.7639 41.2791 47.6183 43.6011 49.0849C45.5173 50.2953 47.2024 51.0119 48.7253 51.2494C47.928 51.4766 47.1155 51.6585 46.2904 51.7875ZM52.1492 49.9263C52.1474 49.928 52.1456 49.9288 52.1429 49.9297C52.1393 49.9314 52.1357 49.934 52.133 49.9357C52.116 49.9442 52.099 49.9527 52.0829 49.9613C52.0022 50.004 51.9207 50.0433 51.8401 50.0817C51.8141 50.0928 51.7855 50.1056 51.7801 50.1082C49.7268 50.9359 47.2857 50.385 44.0992 48.37C41.6706 46.8359 38.9419 44.8696 37.4091 43.743C37.5274 43.1732 37.5327 42.5471 37.4261 41.9048C37.5363 41.8236 37.6367 41.728 37.7325 41.6263C37.8427 41.7374 37.9556 41.8476 38.0685 41.9518C38.0837 41.968 38.0998 41.9842 38.1168 41.997C38.2387 42.1132 38.3605 42.2294 38.4913 42.3447C38.4922 42.3464 38.494 42.3481 38.4958 42.3498C38.9607 42.7624 39.405 43.1228 39.8556 43.4551C39.8682 43.4645 39.8771 43.473 39.8915 43.4833C44.2676 47.2587 47.5123 49.1831 50.1004 49.5376C50.4148 49.5812 50.7042 49.6008 50.9693 49.6C52.3122 49.6 53.0414 49.096 53.4248 48.651C53.2062 49.1234 52.8067 49.5914 52.1492 49.9263ZM54.3843 48.6467C54.5213 48.2265 54.5607 47.8139 54.5276 47.4603C54.447 46.5976 53.9659 45.9484 53.2591 45.7229C53.2537 45.7212 53.2483 45.7186 53.2439 45.7169H53.243C52.9769 45.6247 52.6661 45.5974 52.3418 45.6426C52.1725 45.6665 52.0327 45.7776 51.9781 45.9313C51.9252 46.0859 51.9673 46.2568 52.0873 46.3712C52.2047 46.484 52.1957 46.6702 52.133 46.8051C52.0847 46.9085 51.9485 47.1349 51.5212 47.1323C51.1207 47.1118 50.8117 46.724 50.7848 46.1995C50.7633 45.9134 50.843 45.6127 51.0043 45.3599C51.0733 45.2805 51.1324 45.2044 51.1772 45.1318L51.2712 45.0362C52.0954 44.2666 53.6201 44.1299 54.8178 44.7167C54.8304 44.7235 54.8438 44.727 54.8564 44.7312C55.4763 45.0404 56.2628 45.664 56.6436 46.9051C55.9323 47.5414 55.178 48.1223 54.3843 48.6467ZM57.3432 46.2303C57.0126 45.4334 56.4913 44.7731 55.814 44.2999C59.7727 41.2206 59.4072 37.0899 58.7111 35.0672C58.7174 35.0697 58.7246 35.0723 58.7317 35.0749C59.5004 35.4106 60.0764 36.3151 60.3129 37.5579C60.7527 39.8821 59.9993 43.3714 57.3432 46.2303ZM61.6262 39.8753C61.6226 39.8864 61.6208 39.8975 61.6181 39.9086C61.447 40.3297 61.2598 40.7423 61.06 41.1463C61.3727 39.7762 61.4013 38.4787 61.1971 37.405C60.9955 36.3425 60.5807 35.4874 59.9976 34.9083C60.2215 34.7904 60.4195 34.6196 60.5655 34.4044C60.7707 34.1054 60.8378 33.7765 60.7698 33.4648C60.8576 33.4972 60.9328 33.5416 60.9812 33.5732C61.7158 34.0601 62.7988 36.0042 61.6262 39.8753ZM61.4936 32.8686C60.9301 32.497 60.2932 32.468 59.8291 32.7968C59.7261 32.8694 59.6598 32.9796 59.6491 33.1017C59.6374 33.223 59.6804 33.3443 59.7673 33.4332C59.9196 33.5878 59.9348 33.7577 59.8121 33.9363C59.6742 34.1413 59.3732 34.3044 59.082 34.2105C58.5812 34.0465 58.2713 33.6587 58.2328 33.1445C58.1853 32.5141 58.5732 31.9008 59.2316 31.5788C59.4144 31.4848 59.6177 31.4139 59.8551 31.3627C60.6873 31.179 62.2174 31.3968 62.9628 32.4065C62.9699 32.6063 62.9762 32.8019 62.9762 33.0035C62.9762 33.7108 62.9314 34.4095 62.8517 35.1014C62.5973 34.0319 62.101 33.2692 61.4936 32.8686ZM37.3661 35.0501C37.4485 35.1099 37.5453 35.1398 37.642 35.1398C37.7755 35.1398 37.909 35.0826 37.9977 34.9724C38.1491 34.7862 38.1132 34.5162 37.9171 34.371C37.8346 34.3112 37.7872 34.266 37.7773 34.2591C37.6044 34.0951 37.3213 34.0951 37.1466 34.2609C36.9711 34.4274 36.9702 34.699 37.1431 34.8673C37.1431 34.8673 37.2219 34.9433 37.3661 35.0501Z" fill="#112140"/>
</g>
<path d="M19.6786 22.6265C19.7199 22.5514 19.7844 22.5001 19.8721 22.4728C19.9608 22.4455 20.0441 22.4514 20.123 22.4899L21.37 23.0912C21.5975 23.2005 21.791 23.2338 21.9505 23.1903C22.1099 23.1476 22.2371 23.0365 22.3303 22.8589C22.4235 22.6838 22.4423 22.5223 22.3876 22.3737C22.3321 22.2259 22.1959 22.0995 21.9791 21.9945L20.7106 21.3829C20.6318 21.3444 20.5781 21.2838 20.5494 21.2018C20.5189 21.1181 20.5234 21.0369 20.5637 20.9592C20.6067 20.8823 20.673 20.8294 20.7608 20.802C20.8468 20.7747 20.9292 20.7807 21.0081 20.8191L22.2515 21.4205C22.4539 21.5187 22.6179 21.6314 22.7424 21.7587C22.8687 21.8843 22.9556 22.0201 23.004 22.1653C23.0541 22.3113 23.0667 22.466 23.0434 22.63C23.0192 22.7922 22.9619 22.9597 22.8714 23.1322C22.6869 23.4739 22.4432 23.6951 22.1404 23.795C21.8376 23.8958 21.4873 23.8497 21.0905 23.6584L19.8256 23.0502C19.7467 23.0118 19.693 22.9511 19.6643 22.8691C19.6339 22.7854 19.6383 22.7043 19.6786 22.6265Z" fill="black"/>
<path d="M22.9607 20.3344C22.8891 20.2866 22.8452 20.2234 22.8282 20.1431C22.812 20.0611 22.8282 19.9859 22.8783 19.9176L23.3047 19.3299C23.3549 19.2641 23.423 19.224 23.509 19.2103C23.595 19.195 23.6738 19.2103 23.7455 19.2582C23.8154 19.3043 23.8584 19.3692 23.8745 19.4529C23.8915 19.5349 23.8745 19.6092 23.8243 19.675L23.3979 20.2627C23.3477 20.331 23.2797 20.372 23.1937 20.3857C23.1077 20.3976 23.0306 20.3805 22.9607 20.3344Z" fill="black"/>
<path d="M23.4173 17.4998C23.3555 17.4451 23.3223 17.3785 23.317 17.2982C23.3125 17.2187 23.3385 17.1495 23.3958 17.0898L24.6965 15.7231C24.7521 15.6642 24.822 15.6325 24.908 15.6274C24.9922 15.6232 25.0647 15.6479 25.1265 15.7026C25.1893 15.7555 25.2224 15.8222 25.2269 15.9042C25.2296 15.9845 25.2036 16.0537 25.148 16.1126L24.718 16.5636L26.2696 17.9063C26.3359 17.9636 26.3718 18.0362 26.3771 18.125C26.3816 18.2121 26.3529 18.2873 26.2911 18.3505C26.2284 18.4171 26.1523 18.4522 26.0618 18.4564C25.9704 18.459 25.8916 18.4317 25.8253 18.3744L24.2737 17.0317L23.8473 17.4793C23.79 17.539 23.7201 17.5707 23.6359 17.5749C23.5526 17.5775 23.48 17.5527 23.4173 17.4998Z" fill="black"/>
<path d="M27.7412 16.4694L26.2613 14.7269C26.2039 14.6611 26.1806 14.5851 26.1896 14.498C26.1995 14.4117 26.2398 14.3408 26.3114 14.2861L27.6086 13.2851C27.6731 13.2355 27.7448 13.215 27.8236 13.2236C27.9042 13.2304 27.9714 13.2646 28.0243 13.3261C28.0762 13.3876 28.0977 13.4559 28.0888 13.5311C28.0789 13.6062 28.0422 13.6694 27.9777 13.719L26.9349 14.5253L27.3219 14.9797L28.2142 14.2896C28.2787 14.24 28.3504 14.2195 28.4292 14.2281C28.5098 14.2349 28.577 14.2691 28.6299 14.3306C28.6818 14.3921 28.7033 14.4604 28.6944 14.5356C28.6845 14.6107 28.6478 14.6739 28.5833 14.7235L27.691 15.4136L28.0924 15.8851L29.1494 15.0651C29.2157 15.0156 29.2892 14.9951 29.368 15.0036C29.4486 15.0105 29.5149 15.0438 29.5651 15.1027C29.6171 15.1642 29.6386 15.2343 29.6296 15.3111C29.6224 15.3863 29.5848 15.4495 29.5185 15.4991L28.207 16.5138C28.1354 16.5685 28.0538 16.5915 27.9634 16.5821C27.872 16.5736 27.7985 16.536 27.7412 16.4694Z" fill="black"/>
<path d="M29.1965 12.477C29.1535 12.3975 29.1481 12.3164 29.1786 12.2344C29.2099 12.1524 29.2664 12.0909 29.347 12.0499C29.4142 12.0157 29.485 12.0055 29.5584 12.0191C29.6301 12.0311 29.6928 12.0601 29.7448 12.108L31.1351 13.3926L30.809 11.5852C30.7947 11.5083 30.8 11.4366 30.8269 11.37C30.8556 11.3016 30.9066 11.2495 30.981 11.2128L31.0276 11.1889C31.101 11.153 31.1745 11.141 31.2462 11.1547C31.3196 11.1684 31.3877 11.2042 31.4504 11.2606L32.8372 12.5282L32.4968 10.7105C32.4842 10.6448 32.4914 10.5799 32.5183 10.5158C32.5442 10.4526 32.5944 10.4022 32.6688 10.3655C32.7494 10.3245 32.8318 10.3159 32.916 10.3381C32.9993 10.3586 33.0629 10.409 33.1059 10.4885C33.1149 10.5047 33.122 10.5243 33.1274 10.5465C33.1346 10.5696 33.14 10.591 33.1453 10.6115L33.5108 12.9758C33.5198 13.0578 33.5108 13.133 33.4822 13.2013C33.4535 13.2679 33.4033 13.3192 33.3317 13.355L33.2708 13.3858C33.2009 13.4225 33.131 13.4336 33.0593 13.42C32.9877 13.4063 32.916 13.3713 32.8443 13.314L31.5113 12.125L31.798 13.8436C31.8123 13.9325 31.8034 14.0093 31.7729 14.0725C31.7443 14.1366 31.6941 14.187 31.6224 14.2229L31.5651 14.2536C31.4934 14.2878 31.4191 14.298 31.3429 14.2844C31.2686 14.2707 31.1996 14.2365 31.1351 14.1819L29.2789 12.5692C29.2673 12.5538 29.2529 12.5385 29.2359 12.5248C29.2198 12.5094 29.2064 12.4932 29.1965 12.477Z" fill="black"/>
<path d="M35.295 11.6448C35.3353 11.6337 35.3712 11.6294 35.4025 11.6312C35.4357 11.6337 35.4652 11.6397 35.4921 11.6482C35.6256 11.6918 35.7608 11.7183 35.897 11.7268C36.0332 11.7362 36.1702 11.72 36.3091 11.679C36.4426 11.6405 36.5366 11.5884 36.5922 11.5218C36.6495 11.456 36.6647 11.3817 36.6388 11.2997L36.6352 11.2895C36.6226 11.251 36.6038 11.2194 36.5778 11.1938C36.5537 11.1665 36.5151 11.1451 36.4632 11.1289C36.413 11.1135 36.3458 11.105 36.2625 11.105C36.181 11.1033 36.0744 11.1041 35.9436 11.1084C35.7877 11.1204 35.6444 11.1238 35.5136 11.1187C35.3819 11.1118 35.2646 11.0896 35.1624 11.0503C35.0603 11.0119 34.9725 10.9538 34.9008 10.8761C34.8274 10.7966 34.7674 10.6882 34.7217 10.5515L34.7181 10.5447C34.6805 10.4199 34.6697 10.3004 34.6858 10.1859C34.7002 10.0697 34.7414 9.96297 34.8077 9.86474C34.8722 9.7648 34.96 9.67682 35.0693 9.60165C35.1786 9.52649 35.3093 9.46755 35.4598 9.42399C35.8056 9.32149 36.1353 9.31294 36.4488 9.39665C36.4918 9.40861 36.5331 9.42997 36.5743 9.46157C36.6146 9.49147 36.6459 9.53588 36.6674 9.59482C36.6907 9.67511 36.6827 9.75028 36.6423 9.82032C36.6038 9.88865 36.5438 9.93563 36.4632 9.9604C36.4032 9.97663 36.3449 9.97749 36.2876 9.96382C36.0386 9.90232 35.8164 9.90147 35.6211 9.9604C35.4966 9.99457 35.4106 10.0441 35.3631 10.1073C35.3147 10.1714 35.3022 10.2363 35.3237 10.3021L35.3273 10.3123C35.3434 10.3584 35.3667 10.3943 35.3953 10.4217C35.424 10.449 35.4652 10.4686 35.5208 10.4797C35.5754 10.4917 35.6471 10.4985 35.7358 10.5002C35.8262 10.5002 35.9373 10.4968 36.069 10.49C36.2267 10.4857 36.3682 10.49 36.4954 10.5037C36.6244 10.5156 36.7373 10.5412 36.8358 10.5822C36.9362 10.6232 37.0195 10.6813 37.0867 10.7565C37.1557 10.8299 37.2094 10.9256 37.2479 11.0435L37.2515 11.0537C37.2945 11.1887 37.3062 11.3168 37.2873 11.4398C37.2703 11.5611 37.2264 11.6713 37.1548 11.7712C37.0849 11.8695 36.9917 11.9557 36.8753 12.0309C36.7606 12.1061 36.6253 12.1667 36.4703 12.212C36.2813 12.2692 36.0851 12.2974 35.8827 12.2974C35.682 12.2974 35.4813 12.2658 35.2807 12.2017C35.2377 12.1881 35.1983 12.1659 35.1624 12.1334C35.1284 12.0992 35.1033 12.0599 35.0872 12.0138C35.0639 11.9369 35.0719 11.8626 35.1123 11.7917C35.1526 11.7191 35.2135 11.6704 35.295 11.6448Z" fill="black"/>
<path d="M40.5381 8.74494C40.5328 8.65867 40.5605 8.5835 40.6205 8.51944C40.6824 8.45623 40.7585 8.42035 40.8499 8.41352C40.943 8.40925 41.0228 8.43658 41.09 8.49552C41.1589 8.55275 41.1957 8.6245 41.201 8.71077L41.2548 9.67427L42.405 8.45794C42.4427 8.41694 42.4839 8.38533 42.5269 8.36227C42.5699 8.3375 42.62 8.32298 42.6774 8.31785C42.7705 8.31358 42.8458 8.33835 42.9031 8.39302C42.9623 8.44769 42.9945 8.51517 42.9999 8.5946C43.0017 8.645 42.9936 8.68942 42.9748 8.72785C42.9551 8.76715 42.9282 8.80473 42.8924 8.8406L42.0897 9.63669L43.0787 10.689C43.1047 10.7215 43.1271 10.7539 43.1468 10.7881C43.1656 10.8223 43.1764 10.8624 43.179 10.9077C43.1862 10.9965 43.1584 11.0717 43.0966 11.1332C43.0366 11.1947 42.9578 11.228 42.8601 11.2323C42.7956 11.2374 42.7419 11.2271 42.6989 11.2015C42.6559 11.1767 42.6138 11.1417 42.5735 11.0956L41.6525 10.0706L41.2978 10.4225L41.33 10.9965C41.3345 11.0836 41.3059 11.1597 41.244 11.2254C41.184 11.2895 41.1079 11.3237 41.0147 11.3279C40.9233 11.3348 40.8436 11.3091 40.7746 11.2494C40.7074 11.1904 40.6716 11.1178 40.6671 11.0307L40.5381 8.74494Z" fill="black"/>
<path d="M44.6499 8.69112C44.6588 8.60741 44.7 8.53737 44.7717 8.48271C44.8434 8.42804 44.924 8.40583 45.0154 8.41437L46.0545 8.52029C46.214 8.53908 46.36 8.5741 46.4917 8.62621C46.6225 8.67916 46.7354 8.74835 46.8285 8.83462C46.9217 8.92175 46.9898 9.02766 47.0328 9.15237C47.0776 9.27794 47.0919 9.42058 47.0758 9.57946L47.0722 9.58971C47.048 9.81777 46.9727 9.99629 46.8464 10.1261C46.7219 10.2542 46.5651 10.3431 46.377 10.3926L46.7748 10.97C46.7981 11.0136 46.8187 11.0546 46.8357 11.093C46.8518 11.1298 46.8572 11.1716 46.85 11.2195C46.8402 11.3057 46.8007 11.3732 46.7318 11.421C46.6619 11.4689 46.5866 11.4877 46.506 11.4791C46.4317 11.4723 46.3707 11.4501 46.3233 11.4142C46.2749 11.3775 46.2337 11.3331 46.1979 11.281L45.646 10.4439L45.1229 10.3892L45.0512 11.011C45.0413 11.0982 45.001 11.1682 44.9294 11.2229C44.8595 11.2775 44.7789 11.2997 44.6857 11.2912C44.5943 11.2818 44.5209 11.2434 44.4635 11.175C44.4062 11.1067 44.382 11.0298 44.3919 10.9427L44.6499 8.69112ZM45.2805 9.01571L45.1874 9.83571L45.8539 9.90404C46.016 9.92027 46.1441 9.89635 46.2373 9.83229C46.3322 9.76652 46.386 9.67171 46.3985 9.54871L46.4021 9.54187C46.4164 9.40521 46.3824 9.29929 46.3018 9.22412C46.2202 9.14725 46.0975 9.10027 45.9327 9.08404L45.2805 9.01571Z" fill="black"/>
<path d="M47.9979 11.2783L49.6534 9.37865C49.7107 9.31288 49.7761 9.26761 49.8504 9.24198C49.9239 9.21465 50.0063 9.2138 50.0977 9.23857L50.1335 9.24882C50.2213 9.27188 50.2894 9.31288 50.3378 9.37182C50.3879 9.43161 50.4175 9.50336 50.4274 9.58707L50.7929 12.0334C50.8 12.0966 50.8 12.1402 50.7929 12.1632C50.7687 12.2469 50.7185 12.3084 50.6424 12.3477C50.568 12.3887 50.4883 12.3973 50.4023 12.3751C50.3279 12.3563 50.2715 12.3213 50.2339 12.2692C50.198 12.2162 50.1729 12.1547 50.1586 12.0847L50.0941 11.5995L48.8184 11.2544L48.4852 11.6542C48.4368 11.7063 48.3822 11.7413 48.3204 11.7601C48.2603 11.7806 48.1967 11.7814 48.1304 11.7635C48.0489 11.7404 47.988 11.6934 47.9477 11.6234C47.9065 11.5551 47.8984 11.4816 47.9226 11.4013C47.9271 11.3791 47.9369 11.3569 47.9513 11.3364C47.9656 11.3159 47.9808 11.2971 47.9979 11.2783ZM49.2162 10.7795L50.0189 10.9947L49.8863 9.97657L49.2162 10.7795Z" fill="black"/>
<path d="M52.9229 10.5071C52.9633 10.4277 53.0269 10.3739 53.1129 10.3466C53.1989 10.3175 53.2822 10.3218 53.3637 10.3602C53.4497 10.397 53.507 10.4559 53.5357 10.5379C53.5661 10.6182 53.5617 10.6976 53.5214 10.7771L53.0914 11.6483L54.711 11.1016C54.7657 11.0837 54.8167 11.0743 54.8651 11.0743C54.9153 11.0726 54.9663 11.0837 55.0192 11.1085C55.1025 11.1452 55.1563 11.2007 55.1804 11.2759C55.2064 11.3493 55.2019 11.4211 55.1661 11.4911C55.1446 11.5373 55.1159 11.5731 55.0801 11.6005C55.0443 11.6261 54.9995 11.6466 54.9475 11.662L53.8474 11.9934L54.1843 13.3703C54.1914 13.4087 54.195 13.4472 54.195 13.4865C54.1968 13.5275 54.1888 13.5685 54.1699 13.6095C54.1287 13.6889 54.0669 13.741 53.9836 13.7666C53.8994 13.794 53.8134 13.788 53.7256 13.7496C53.6656 13.7222 53.6226 13.6881 53.5966 13.6471C53.5724 13.6061 53.5536 13.5565 53.5393 13.5001L53.2454 12.1745L52.7509 12.3248L52.4929 12.8441C52.4544 12.9236 52.3926 12.9774 52.3066 13.0047C52.2224 13.0338 52.1382 13.0303 52.0522 12.9945C51.9707 12.9552 51.9142 12.8954 51.8838 12.8134C51.8524 12.7331 51.856 12.6545 51.8945 12.5742L52.9229 10.5071Z" fill="black"/>
<path d="M55.145 13.999L57.3631 12.7212C57.4392 12.6759 57.5172 12.6528 57.596 12.6528C57.6748 12.6528 57.7519 12.6785 57.8289 12.728L57.8612 12.7519C57.9346 12.7997 57.9848 12.8595 58.0117 12.9296C58.0377 13.0005 58.0412 13.0765 58.0224 13.1585L57.5279 15.5843C57.5136 15.6501 57.4993 15.692 57.4849 15.7107C57.4321 15.7808 57.3631 15.8235 57.2771 15.8372C57.1929 15.8525 57.114 15.8355 57.0406 15.7859C56.9779 15.7449 56.9376 15.6937 56.9188 15.6322C56.9017 15.5707 56.8982 15.504 56.908 15.434L57.0155 14.9557L55.9298 14.2347L55.4747 14.5047C55.4147 14.5405 55.3528 14.5576 55.2883 14.5559C55.2238 14.5559 55.1629 14.5363 55.1056 14.4978C55.0339 14.4517 54.9909 14.3894 54.9766 14.3099C54.964 14.2322 54.982 14.1596 55.0303 14.0912C55.0447 14.0733 55.0608 14.0571 55.0805 14.0434C55.0993 14.028 55.1208 14.0127 55.145 13.999ZM56.4673 13.9067L57.1517 14.3646L57.3774 13.3601L56.4673 13.9067Z" fill="black"/>
<path d="M59.8837 14.649C59.9411 14.5926 60.011 14.5627 60.0952 14.5601C60.1812 14.5584 60.2537 14.5858 60.3137 14.6421L61.7041 15.9268C61.7632 15.9815 61.7937 16.0498 61.7937 16.1318C61.7955 16.2121 61.7686 16.2804 61.7112 16.3368C61.6512 16.394 61.5796 16.4222 61.4962 16.4222C61.412 16.4239 61.3404 16.3983 61.2812 16.3436L60.8226 15.92L59.3606 17.355C59.2979 17.4165 59.2208 17.4472 59.1277 17.4472C59.0363 17.4489 58.9592 17.4207 58.8947 17.3618C58.8276 17.3003 58.7926 17.2251 58.7908 17.1363C58.7908 17.0492 58.8213 16.9757 58.884 16.9142L60.346 15.4792L59.8909 15.059C59.8309 15.0026 59.7995 14.9343 59.7977 14.854C59.7951 14.7745 59.8237 14.7062 59.8837 14.649Z" fill="black"/>
<path d="M60.7943 18.6078L63.3242 18.0645C63.412 18.044 63.4935 18.0466 63.5678 18.0714C63.644 18.0944 63.7094 18.1414 63.7649 18.2114L63.79 18.2422C63.8446 18.3105 63.8724 18.3823 63.8724 18.4574C63.8724 18.5326 63.8491 18.6078 63.8043 18.6829L62.5287 20.832C62.4928 20.8867 62.4651 20.9209 62.4462 20.9345C62.3719 20.9866 62.2922 21.0063 62.2062 20.9926C62.122 20.9806 62.0539 20.9422 62.0019 20.8764C61.9535 20.8166 61.9311 20.7551 61.9338 20.6919C61.9383 20.6279 61.9571 20.5655 61.9912 20.504L62.2527 20.0804L61.4608 19.0656L60.9412 19.1886C60.8714 19.2023 60.806 19.1989 60.7442 19.1784C60.6841 19.1579 60.6331 19.1211 60.5901 19.069C60.5399 19.0024 60.522 18.9298 60.5363 18.8504C60.5507 18.7726 60.591 18.7103 60.6582 18.6624C60.677 18.6488 60.6976 18.6377 60.7191 18.6283C60.7424 18.6197 60.7675 18.6129 60.7943 18.6078ZM62.0772 18.9221L62.5752 19.561L63.1271 18.6761L62.0772 18.9221Z" fill="black"/>
<path d="M65.6235 20.9612C65.6638 21.0363 65.6701 21.1166 65.6414 21.2003C65.6127 21.2849 65.559 21.3464 65.4801 21.3848L64.2331 21.9862C64.0056 22.0955 63.8641 22.2236 63.8067 22.3722C63.7494 22.52 63.7673 22.6832 63.8605 22.8608C63.9536 23.0359 64.0791 23.1461 64.2367 23.1922C64.3944 23.2375 64.5816 23.2076 64.7993 23.1034L66.0678 22.4918C66.1466 22.4525 66.2291 22.4457 66.3151 22.4713C66.4029 22.4987 66.4674 22.5508 66.5086 22.6285C66.5516 22.7054 66.5569 22.7865 66.5265 22.8711C66.4978 22.9548 66.4441 23.0163 66.3652 23.0556L65.1218 23.6569C64.9185 23.7543 64.7259 23.8124 64.5449 23.8312C64.3657 23.8517 64.1991 23.838 64.0468 23.7902C63.8963 23.7423 63.7584 23.6603 63.6347 23.5442C63.5102 23.4297 63.4027 23.2862 63.3122 23.1137C63.1277 22.772 63.0838 22.4542 63.1796 22.1604C63.2746 21.8666 63.521 21.624 63.9178 21.4327L65.1827 20.8245C65.2616 20.7861 65.344 20.7801 65.43 20.8074C65.5178 20.833 65.5823 20.8843 65.6235 20.9612Z" fill="black"/>
<path d="M27.3915 49.2878C27.4434 49.2314 27.5097 49.199 27.5885 49.1921C27.6674 49.1853 27.7372 49.2075 27.8 49.257L28.3948 49.7354C28.5139 49.831 28.6062 49.9327 28.6707 50.0395C28.737 50.1471 28.7782 50.2564 28.7925 50.3675C28.8087 50.4794 28.7979 50.5895 28.7603 50.6989C28.7245 50.8056 28.6635 50.9081 28.5775 51.0064L28.574 51.0098C28.4736 51.1208 28.3661 51.202 28.2515 51.2524C28.1368 51.3045 28.0167 51.3284 27.8931 51.3241C27.7713 51.3216 27.6495 51.2942 27.5276 51.2421C27.4058 51.1917 27.2884 51.1225 27.1765 51.0337L26.8432 50.7672L26.51 51.1465C26.4571 51.2054 26.3917 51.237 26.3129 51.2421C26.234 51.249 26.1642 51.2285 26.105 51.1806C26.0423 51.1302 26.0083 51.0679 26.0011 50.9927C25.994 50.9175 26.0163 50.8501 26.0692 50.7911L27.3915 49.2878ZM27.1693 50.3982L27.5169 50.675C27.6262 50.7638 27.7363 50.8048 27.8465 50.798C27.9558 50.7911 28.0481 50.7467 28.1225 50.6647L28.126 50.6579C28.2093 50.5648 28.2407 50.4683 28.2192 50.3675C28.1995 50.2675 28.135 50.1727 28.0257 50.0839L27.6853 49.814L27.1693 50.3982Z" fill="black"/>
<path d="M30.0004 50.8891C30.0667 50.9301 30.1088 50.9882 30.1258 51.0634C30.1446 51.1368 30.133 51.2052 30.09 51.2684L29.4378 52.2455C29.3205 52.4189 29.2748 52.5735 29.3017 52.7102C29.3276 52.8469 29.4145 52.9596 29.5632 53.0485C29.7137 53.1416 29.858 53.1715 29.9968 53.1373C30.1375 53.1048 30.2638 53.0049 30.3767 52.8366L31.0396 51.8458C31.0826 51.7826 31.1417 51.7424 31.2187 51.7262C31.2976 51.7108 31.3701 51.7228 31.4373 51.7638C31.5036 51.8031 31.5457 51.8595 31.5627 51.9346C31.5789 52.0098 31.5663 52.0798 31.5233 52.143L30.8747 53.1134C30.7672 53.2723 30.6508 53.397 30.5272 53.4858C30.4026 53.5763 30.2727 53.637 30.1366 53.6669C30.0004 53.6959 29.8589 53.6925 29.7137 53.6566C29.5704 53.6225 29.4244 53.5593 29.2766 53.4687C28.9827 53.291 28.8018 53.0724 28.7355 52.8127C28.6683 52.5556 28.7391 52.272 28.9469 51.962L29.6062 50.9745C29.6492 50.9113 29.7084 50.8712 29.7854 50.855C29.8642 50.837 29.9359 50.8481 30.0004 50.8891Z" fill="black"/>
<path d="M31.4982 54.3985L32.351 52.5876C32.3815 52.5193 32.4343 52.4715 32.5087 52.4441C32.5822 52.4168 32.6565 52.4193 32.7309 52.451L32.7882 52.4749C32.8428 52.4979 32.885 52.5312 32.9136 52.574C32.9423 52.615 32.9584 52.6611 32.9638 52.7106L33.1358 53.9611L34.2359 53.2505C34.329 53.1872 34.4267 53.177 34.5297 53.2197L34.587 53.247C34.6587 53.2769 34.7089 53.3273 34.7375 53.3974C34.7662 53.4683 34.7644 53.5375 34.734 53.6058L33.8811 55.4132C33.8498 55.4815 33.7969 55.5277 33.7235 55.5533C33.6491 55.5806 33.5765 55.5789 33.5049 55.5499C33.4332 55.5174 33.383 55.4662 33.3544 55.3961C33.3275 55.3278 33.3302 55.2595 33.3615 55.1911L33.8955 54.0568L33.1215 54.5317C33.0758 54.5633 33.0301 54.583 32.9853 54.5898C32.9396 54.5966 32.8921 54.5898 32.842 54.5693C32.7936 54.5488 32.7577 54.5197 32.7345 54.4839C32.7103 54.4454 32.6932 54.4002 32.6843 54.3472L32.5445 53.4896L32.0142 54.6171C31.9802 54.6855 31.9282 54.7316 31.8565 54.7572C31.7867 54.7845 31.715 54.782 31.6415 54.7504C31.5672 54.7179 31.5161 54.6684 31.4875 54.6C31.4606 54.5334 31.4642 54.4668 31.4982 54.3985Z" fill="black"/>
<path d="M35.1043 55.8399L35.6561 53.9231C35.6776 53.8505 35.7215 53.7958 35.7887 53.7591C35.8577 53.7207 35.932 53.7113 36.0108 53.7318L36.0682 53.7489C36.1273 53.7651 36.1739 53.7916 36.2079 53.8274C36.2438 53.8642 36.2688 53.906 36.2832 53.9539L36.6558 55.1668L37.6233 54.3024C37.7067 54.2272 37.8025 54.2033 37.91 54.2306L37.9745 54.2477C38.0507 54.2682 38.108 54.3117 38.1465 54.3775C38.1868 54.4416 38.1967 54.5099 38.1752 54.5825L37.6269 56.4924C37.6054 56.5625 37.5597 56.6171 37.4908 56.6564C37.4209 56.6949 37.3483 56.7043 37.2722 56.6838C37.1951 56.6633 37.1378 56.6197 37.1002 56.5539C37.0643 56.4873 37.0572 56.419 37.0787 56.3489L37.4227 55.1531L36.7311 55.7374C36.6881 55.7698 36.6451 55.7937 36.6021 55.8091C36.5591 55.8228 36.5125 55.8228 36.4623 55.8091C36.4122 55.7954 36.371 55.7732 36.3405 55.7408C36.3092 55.7066 36.285 55.6647 36.2688 55.6144L35.9929 54.7875L35.6489 55.9834C35.6274 56.0534 35.5826 56.1072 35.5163 56.1439C35.4492 56.1798 35.3775 56.1884 35.3013 56.1679C35.2225 56.1474 35.1634 56.1046 35.1258 56.0414C35.0899 55.9782 35.0828 55.9107 35.1043 55.8399Z" fill="black"/>
<path d="M38.7661 56.6041L39.9199 54.7591C39.9602 54.6958 40.0104 54.6489 40.0704 54.619C40.1295 54.5874 40.2003 54.5763 40.2818 54.5848L40.3141 54.5882C40.3929 54.5976 40.4556 54.6241 40.504 54.6668C40.5542 54.7104 40.5909 54.7685 40.6151 54.8411L41.2672 56.8945C41.2816 56.9491 41.287 56.9867 41.2852 57.0072C41.2753 57.0773 41.2404 57.1353 41.1812 57.1815C41.1239 57.2267 41.0567 57.2447 40.9806 57.2361C40.9134 57.2267 40.8596 57.2028 40.8193 57.1644C40.7781 57.1251 40.7495 57.0756 40.7333 57.0141L40.6079 56.6075L39.4648 56.4776L39.2319 56.8569C39.2006 56.9098 39.1602 56.9466 39.1101 56.9696C39.0599 56.9944 39.0044 57.0038 38.9452 56.997C38.8709 56.9901 38.8109 56.9594 38.7661 56.9047C38.7231 56.8483 38.7061 56.7843 38.7159 56.7134C38.7177 56.6955 38.724 56.6775 38.7338 56.6587C38.7455 56.6382 38.7562 56.6203 38.7661 56.6041ZM39.7407 56.0198L40.4574 56.1018L40.203 55.2476L39.7407 56.0198Z" fill="black"/>
<path d="M44.3477 55.8794C44.2778 55.7999 44.2259 55.7213 44.19 55.6436C44.1542 55.5667 44.1327 55.4847 44.1255 55.3976V55.3908C44.1184 55.3071 44.1273 55.2251 44.1542 55.1448C44.1802 55.0628 44.2241 54.9893 44.2868 54.9227C44.3486 54.8569 44.4274 54.8023 44.5233 54.7587C44.6209 54.7134 44.7329 54.6861 44.8601 54.6767C44.9694 54.6682 45.0698 54.6758 45.1611 54.7006C45.2516 54.7262 45.3313 54.7647 45.4012 54.8168C45.4729 54.8697 45.5284 54.9329 45.5696 55.0081C45.6099 55.0816 45.6341 55.161 45.6413 55.2473V55.2541C45.6556 55.4232 45.6162 55.5616 45.523 55.6709C45.4317 55.7803 45.3098 55.8717 45.1575 55.9443L45.523 56.2381C45.5463 56.1971 45.5714 56.1544 45.5983 56.1083C45.627 56.0604 45.6503 56.0092 45.67 55.9545C45.6816 55.9298 45.704 55.9024 45.738 55.8725C45.7712 55.8409 45.8169 55.823 45.8742 55.8179C45.9387 55.811 45.996 55.8281 46.0462 55.8691C46.0964 55.9101 46.1233 55.9614 46.1286 56.0229C46.1331 56.0639 46.1259 56.104 46.1071 56.1424C46.0713 56.2065 46.0364 56.2714 46.0032 56.3372C45.9692 56.4038 45.9315 56.4696 45.8885 56.5354L46.1465 56.7369C46.1752 56.76 46.1976 56.7848 46.2146 56.8121C46.2334 56.8377 46.2442 56.8693 46.2469 56.9078C46.254 56.9761 46.2343 57.0359 46.1895 57.0854C46.1465 57.1333 46.0892 57.1598 46.0175 57.164C45.9763 57.1666 45.9405 57.1632 45.91 57.1538C45.8814 57.1452 45.8509 57.1282 45.8205 57.1025L45.584 56.9078C45.4854 57.006 45.3761 57.0854 45.2543 57.1469C45.1325 57.2067 44.9927 57.2426 44.835 57.2563C44.7105 57.2657 44.5932 57.258 44.4839 57.2324C44.3737 57.2076 44.2769 57.1666 44.1936 57.1094C44.1121 57.053 44.0449 56.9821 43.993 56.8975C43.9401 56.8113 43.9088 56.7147 43.8998 56.6071V56.6003C43.8855 56.4414 43.9159 56.3022 43.993 56.1834C44.0718 56.063 44.19 55.9614 44.3477 55.8794ZM44.8637 56.8019C44.9945 56.7933 45.1181 56.7361 45.2328 56.631L44.6917 56.1869C44.6075 56.2398 44.5493 56.2953 44.5161 56.3543C44.4821 56.4141 44.4678 56.4739 44.4731 56.5354V56.5422C44.4821 56.6293 44.5233 56.6959 44.595 56.7438C44.6666 56.7916 44.7562 56.8113 44.8637 56.8019ZM44.6523 55.3771V55.3839C44.6568 55.4386 44.672 55.4882 44.6989 55.5309C44.7275 55.5744 44.7705 55.6231 44.8279 55.6778C44.9399 55.6325 45.0223 55.5821 45.0751 55.5274C45.1298 55.4728 45.154 55.4044 45.1468 55.3224V55.3156C45.1396 55.2456 45.1119 55.1918 45.0644 55.155C45.016 55.1166 44.9569 55.0995 44.8852 55.1038C44.8064 55.1106 44.7455 55.1397 44.7025 55.1892C44.6613 55.237 44.6451 55.3002 44.6523 55.3771Z" fill="black"/>
<path d="M49.0408 56.3431L48.4782 54.4742C48.4567 54.4016 48.4657 54.3324 48.5033 54.2658C48.5418 54.2 48.6 54.1564 48.6789 54.1359L49.5675 53.8934C49.6697 53.8643 49.7736 53.8481 49.8793 53.8455C49.9841 53.8413 50.0835 53.8541 50.1767 53.8831C50.2717 53.9104 50.3541 53.9574 50.4239 54.0232C50.4929 54.0898 50.544 54.1787 50.578 54.2897L50.5816 54.2965C50.6219 54.4289 50.6219 54.5451 50.5816 54.645C50.5404 54.7458 50.4822 54.8312 50.406 54.9013C50.5709 54.9149 50.7079 54.9551 50.8181 55.0209C50.9274 55.0875 51.0062 55.2002 51.0546 55.3591L51.0582 55.3659C51.0913 55.4753 51.0976 55.5778 51.0761 55.6734C51.0546 55.7674 51.0098 55.8528 50.9435 55.9297C50.879 56.0074 50.793 56.0758 50.6855 56.1347C50.5798 56.1945 50.4562 56.2432 50.3129 56.2816L49.3991 56.531C49.3203 56.5515 49.2459 56.5438 49.1769 56.5071C49.1071 56.4712 49.0623 56.4166 49.0408 56.3431ZM49.3633 55.4719L49.5209 55.9946L50.1731 55.8169C50.2949 55.7828 50.3845 55.7367 50.4419 55.6769C50.501 55.6154 50.5171 55.5393 50.4884 55.4479V55.4445C50.4643 55.3651 50.4114 55.3113 50.3308 55.2839C50.2519 55.2549 50.1409 55.2592 49.9975 55.2976L49.3633 55.4719ZM49.2343 55.0345L49.7395 54.8944C49.8632 54.8628 49.9545 54.8159 50.0119 54.7544C50.0692 54.6929 50.0844 54.6194 50.0584 54.5323V54.5254C50.0343 54.4434 49.985 54.3913 49.9115 54.3683C49.8372 54.3435 49.7404 54.3469 49.6213 54.3785L49.0802 54.5289L49.2343 55.0345Z" fill="black"/>
<path d="M51.5187 53.2463C51.5904 53.2172 51.6638 53.2155 51.7373 53.2429C51.8116 53.2702 51.8645 53.318 51.895 53.3864L52.3823 54.4489C52.4701 54.6386 52.5803 54.7599 52.712 54.8145C52.8454 54.8692 52.9932 54.8624 53.1563 54.794C53.3211 54.7257 53.4268 54.6283 53.4752 54.5002C53.5254 54.3729 53.5084 54.2166 53.425 54.0321L52.9305 52.9559C52.8992 52.8875 52.8983 52.8183 52.927 52.7474C52.9556 52.6774 53.0058 52.6262 53.0775 52.5937C53.1491 52.5647 53.2217 52.5629 53.296 52.5903C53.3695 52.6176 53.4224 52.6654 53.4537 52.7338L53.9375 53.7895C54.0181 53.9629 54.0638 54.1244 54.0736 54.2747C54.0826 54.4233 54.0611 54.56 54.0091 54.6847C53.959 54.8077 53.8783 54.917 53.769 55.0127C53.6589 55.1084 53.5227 55.1904 53.3605 55.2587C53.0398 55.3937 52.7487 55.415 52.4862 55.3236C52.2255 55.2305 52.0195 55.0153 51.8663 54.6779L51.3718 53.605C51.3413 53.5367 51.3395 53.4684 51.3682 53.4C51.3969 53.33 51.447 53.2787 51.5187 53.2463Z" fill="black"/>
<path d="M55.2184 51.4245C55.3904 51.322 55.566 51.2571 55.7452 51.2298C55.9261 51.2025 56.1008 51.2076 56.2684 51.2435C56.435 51.2776 56.5909 51.3443 56.7342 51.4416C56.8793 51.5373 57.0029 51.6629 57.1033 51.8175L57.1069 51.8209C57.2072 51.9712 57.2699 52.1309 57.2968 52.2992C57.3227 52.4658 57.3156 52.6298 57.2753 52.7912C57.2367 52.9509 57.1642 53.1021 57.0567 53.2456C56.9492 53.3891 56.8094 53.5121 56.6374 53.6146C56.4672 53.7154 56.2916 53.7803 56.1107 53.8094C55.9288 53.8367 55.7541 53.8333 55.5875 53.7991C55.42 53.7633 55.265 53.6966 55.1217 53.601C54.9784 53.5036 54.8565 53.3789 54.7562 53.2285L54.7526 53.2217C54.655 53.0714 54.5914 52.9134 54.5627 52.7468C54.534 52.5785 54.5403 52.4137 54.5806 52.2514C54.6218 52.0874 54.6953 51.9353 54.8028 51.7935C54.9103 51.65 55.0491 51.527 55.2184 51.4245ZM56.3687 53.1807C56.4663 53.1243 56.5443 53.0543 56.6016 52.9723C56.6607 52.8886 56.7001 52.798 56.7199 52.7024C56.7387 52.6067 56.7387 52.5102 56.7199 52.412C56.7001 52.3146 56.6607 52.2198 56.6016 52.1284L56.598 52.1215C56.538 52.031 56.4654 51.9558 56.3794 51.896C56.2934 51.8345 56.2003 51.7918 56.0999 51.7662C56.0014 51.7414 55.9002 51.7372 55.7954 51.7525C55.6923 51.7662 55.5911 51.8029 55.4908 51.8619C55.3922 51.9191 55.3152 51.99 55.2579 52.0737C55.1987 52.1557 55.1593 52.2437 55.1396 52.3368C55.1181 52.4308 55.1181 52.5273 55.1396 52.6272C55.1593 52.728 55.1987 52.8237 55.2579 52.9142L55.2614 52.9176C55.3206 53.0065 55.3922 53.0816 55.4764 53.1431C55.5624 53.2046 55.6538 53.2482 55.7524 53.273C55.8527 53.2986 55.9566 53.3037 56.0641 53.29C56.1716 53.2747 56.2728 53.2379 56.3687 53.1807Z" fill="black"/>
<path d="M57.0683 50.594C57.0209 50.5376 57.0021 50.4727 57.011 50.3993C57.0182 50.3266 57.0522 50.266 57.1113 50.2182C57.1615 50.1797 57.2144 50.1584 57.269 50.1533C57.3246 50.1464 57.3828 50.1524 57.4446 50.1703L58.5124 50.4505L58.4157 49.3845C58.4112 49.323 58.4157 49.2683 58.43 49.2205C58.4426 49.171 58.4712 49.1265 58.516 49.0873C58.585 49.0351 58.6558 49.0138 58.7274 49.0223C58.7991 49.0292 58.86 49.0625 58.9102 49.1214C58.9362 49.1513 58.9541 49.1829 58.9639 49.2171C58.9756 49.2495 58.9827 49.2811 58.9854 49.3128L59.0714 50.6623L59.5516 51.2124C59.6036 51.2722 59.6268 51.3388 59.6197 51.414C59.6125 51.4892 59.5776 51.5507 59.5158 51.5985C59.4557 51.6463 59.3868 51.6668 59.3079 51.66C59.2291 51.6532 59.1628 51.6207 59.1108 51.5609L58.6378 51.0211L57.2547 50.6965C57.2215 50.6922 57.1893 50.682 57.1579 50.6658C57.1275 50.6478 57.097 50.6239 57.0683 50.594Z" fill="black"/>
</svg>
