<svg width="132" height="91" viewBox="0 0 132 91" fill="none" xmlns="http://www.w3.org/2000/svg">
<path d="M123.75 17.1667H115.5V4.29167C115.5 1.92052 113.654 0 111.375 0H86.625C84.3459 0 82.5 1.92052 82.5 4.29167V17.1667H49.5V4.29167C49.5 1.92052 47.6541 0 45.375 0H20.625C18.3459 0 16.5 1.92052 16.5 4.29167V17.1667H8.25C3.69445 17.1667 0 21.0104 0 25.75V94.4167C0 99.1563 3.69445 103 8.25 103H123.75C128.306 103 132 99.1563 132 94.4167V25.75C132 21.0104 128.306 17.1667 123.75 17.1667ZM49.5 53.6458C49.5 54.8314 48.577 55.7917 47.4375 55.7917H18.5625C17.423 55.7917 16.5 54.8314 16.5 53.6458V49.3542C16.5 48.1686 17.423 47.2083 18.5625 47.2083H47.4375C48.577 47.2083 49.5 48.1686 49.5 49.3542V53.6458ZM115.5 53.6458C115.5 54.8314 114.577 55.7917 113.437 55.7917H103.125V66.5208C103.125 67.7064 102.202 68.6667 101.062 68.6667H96.9375C95.798 68.6667 94.875 67.7064 94.875 66.5208V55.7917H84.5625C83.423 55.7917 82.5 54.8314 82.5 53.6458V49.3542C82.5 48.1686 83.423 47.2083 84.5625 47.2083H94.875V36.4792C94.875 35.2936 95.798 34.3333 96.9375 34.3333H101.062C102.202 34.3333 103.125 35.2936 103.125 36.4792V47.2083H113.437C114.577 47.2083 115.5 48.1686 115.5 49.3542V53.6458Z" fill="#DDDDDD" fill-opacity="0.5"/>
</svg>
