<svg width="132" height="103" viewBox="0 0 132 103" fill="none" xmlns="http://www.w3.org/2000/svg">
<path d="M36.3 72.1C38.9256 72.1 41.4437 71.2861 43.3004 69.8374C45.157 68.3887 46.2 66.4238 46.2 64.375C46.2322 64.1181 46.2322 63.8594 46.2 63.6025L64.614 49.234H66.132H67.65L78.276 57.5255C78.276 57.5255 78.276 57.783 78.276 57.9375C78.276 59.9863 79.319 61.9512 81.1756 63.3999C83.0323 64.8486 85.5504 65.6625 88.176 65.6625C90.8016 65.6625 93.3197 64.8486 95.1764 63.3999C97.033 61.9512 98.076 59.9863 98.076 57.9375V57.5255L122.1 38.625C124.058 38.625 125.972 38.1719 127.6 37.3231C129.228 36.4743 130.497 35.2678 131.246 33.8562C131.996 32.4447 132.192 30.8914 131.81 29.3929C131.428 27.8944 130.485 26.518 129.1 25.4376C127.716 24.3572 125.952 23.6215 124.031 23.3234C122.111 23.0254 120.12 23.1783 118.311 23.763C116.502 24.3477 114.956 25.3378 113.868 26.6082C112.781 27.8786 112.2 29.3721 112.2 30.9C112.168 31.1569 112.168 31.4156 112.2 31.6725L88.374 50.264H87.318L75.9 41.2C75.9 39.1512 74.857 37.1863 73.0004 35.7376C71.1437 34.2889 68.6256 33.475 66 33.475C63.3744 33.475 60.8563 34.2889 58.9996 35.7376C57.143 37.1863 56.1 39.1512 56.1 41.2L36.3 56.65C33.6744 56.65 31.1562 57.4639 29.2996 58.9126C27.443 60.3613 26.4 62.3262 26.4 64.375C26.4 66.4238 27.443 68.3887 29.2996 69.8374C31.1562 71.2861 33.6744 72.1 36.3 72.1ZM125.4 92.7H13.2V5.15C13.2 3.78414 12.5046 2.47421 11.2669 1.5084C10.0292 0.542588 8.35043 0 6.6 0C4.84957 0 3.17084 0.542588 1.93309 1.5084C0.695355 2.47421 0 3.78414 0 5.15V97.85C0 99.2159 0.695355 100.526 1.93309 101.492C3.17084 102.457 4.84957 103 6.6 103H125.4C127.15 103 128.829 102.457 130.067 101.492C131.305 100.526 132 99.2159 132 97.85C132 96.4841 131.305 95.1742 130.067 94.2084C128.829 93.2426 127.15 92.7 125.4 92.7Z" fill="#DDDDDD" fill-opacity="0.5"/>
</svg>
