<svg width="92" height="117" viewBox="0 0 92 117" fill="none" xmlns="http://www.w3.org/2000/svg">
<path d="M36.9838 127C57.3497 127 73.897 113.626 73.897 97.1647C73.897 88.477 69.4422 80.8753 61.027 74.7026C59.4713 73.5594 59.1174 72.9307 59.1174 71.2161L59.2589 19.8903C59.2589 7.9446 50.2783 0 36.9838 0C23.6187 0 14.6381 7.9446 14.6381 19.8903L14.7087 71.2161C14.7087 72.9307 14.3551 73.5594 12.8703 74.7026C4.38424 80.8753 0 88.477 0 97.1647C0 113.626 16.4767 127 36.9838 127ZM36.9838 118.713C22.2751 118.713 10.3244 108.996 10.3244 97.1647C10.3244 90.0202 14.4966 83.5617 21.9924 79.5036C24.1847 78.3033 25.0331 77.2174 25.0331 74.8741V20.2332C25.0331 13.0316 29.9125 8.40209 36.9838 8.40209C43.9845 8.40209 48.7933 13.0316 48.7933 20.2332V74.8741C48.7933 77.2174 49.6417 78.3033 51.834 79.5036C59.3298 83.5617 63.502 90.0202 63.502 97.1647C63.502 108.996 51.6219 118.713 36.9838 118.713ZM72.412 20.9762H87.8279C90.3028 20.9762 92 19.433 92 17.6611C92 15.8894 90.3028 14.3463 87.8279 14.3463H72.412C69.937 14.3463 68.2398 15.8894 68.2398 17.6611C68.2398 19.433 69.937 20.9762 72.412 20.9762ZM72.412 37.0371H87.8279C90.3028 37.0371 92 35.4937 92 33.722C92 31.9501 90.3028 30.4069 87.8279 30.4069H72.412C69.937 30.4069 68.2398 31.9501 68.2398 33.722C68.2398 35.4937 69.937 37.0371 72.412 37.0371ZM36.9132 110.996C46.3889 110.996 54.0263 104.823 54.0263 97.1076C54.0263 91.7348 50.2783 87.3338 44.8333 84.9335C42.5704 83.9619 41.7926 83.2759 41.7926 80.4751V50.1255C41.7926 47.1536 39.6709 45.3816 36.9132 45.3816C34.2258 45.3816 32.0338 47.1536 32.0338 50.1255V80.4751C32.0338 83.2759 31.256 83.9619 28.9931 84.9335C23.5481 87.3338 19.8001 91.7348 19.8001 97.1076C19.8001 104.823 27.4372 110.996 36.9132 110.996ZM72.412 53.0977H87.8279C90.3028 53.0977 92 51.5546 92 49.7826C92 48.011 90.3028 46.4105 87.8279 46.4105H72.412C69.937 46.4105 68.2398 48.011 68.2398 49.7826C68.2398 51.5546 69.937 53.0977 72.412 53.0977ZM72.412 69.1584H87.8279C90.3028 69.1584 92 67.5581 92 65.7862C92 64.0143 90.3028 62.4714 87.8279 62.4714H72.412C69.937 62.4714 68.2398 64.0143 68.2398 65.7862C68.2398 67.5581 69.937 69.1584 72.412 69.1584Z" fill="#DDDDDD" fill-opacity="0.5"/>
</svg>
