<svg width="97" height="123" viewBox="0 0 97 123" fill="none" xmlns="http://www.w3.org/2000/svg">
<path d="M51.5717 1.3467C51.1922 0.924354 50.7214 0.5853 50.1914 0.352834C49.6615 0.120368 49.085 0 48.5017 0C47.9183 0 47.3419 0.120368 46.8119 0.352834C46.282 0.5853 45.8111 0.924354 45.4317 1.3467C34.7684 13.234 0 54.3309 0 84.7732C0 113.142 18.7399 131 48.5 131C78.2601 131 97 113.142 97 84.7732C97 54.3309 62.2316 13.234 51.5717 1.3467ZM53.8889 114.307C53.2416 114.308 52.6033 114.161 52.028 113.879C51.4526 113.596 50.9569 113.186 50.5826 112.682C50.2083 112.179 49.9663 111.597 49.877 110.986C49.7877 110.375 49.8537 109.752 50.0695 109.171C50.3451 108.412 50.8649 107.755 51.5549 107.294C52.2449 106.833 53.0699 106.591 53.9125 106.603C59.2622 106.591 64.3896 104.561 68.1725 100.955C71.9553 97.3499 74.0857 92.4629 74.0972 87.3638C74.0849 86.5607 74.3387 85.7744 74.8225 85.1168C75.3062 84.4591 75.9953 83.9637 76.7917 83.701C77.402 83.4953 78.0552 83.4324 78.6964 83.5175C79.3375 83.6026 79.9478 83.8332 80.476 84.19C81.0041 84.5468 81.4346 85.0193 81.7312 85.5677C82.0279 86.1161 82.182 86.7244 82.1806 87.3414C82.1725 94.4907 79.1892 101.345 73.8853 106.4C68.5813 111.456 61.3898 114.299 53.8889 114.307Z" fill="#DDDDDD" fill-opacity="0.5"/>
</svg>
